<svg xmlns="http://www.w3.org/2000/svg" xmlns:xlink="http://www.w3.org/1999/xlink" width="500" zoomAndPan="magnify" viewBox="0 0 375 374.999991" height="500" preserveAspectRatio="xMidYMid meet" version="1.0"><defs><clipPath id="48c06418d4"><path d="M 14 1 L 361.226562 1 L 361.226562 375 L 14 375 Z M 14 1 " clip-rule="nonzero"/></clipPath></defs><g clip-path="url(#48c06418d4)"><path fill="#ffffff" d="M 90.320312 362.234375 L 20.035156 362.234375 C 16.78125 362.234375 14.144531 364.878906 14.144531 368.121094 C 14.144531 371.375 16.78125 374.011719 20.035156 374.011719 L 309.910156 374.011719 C 313.164062 374.011719 315.800781 371.375 315.800781 368.121094 C 315.800781 364.878906 313.164062 362.234375 309.910156 362.234375 L 221.507812 362.234375 C 255.984375 344.507812 279.5625 308.578125 279.5625 267.144531 L 279.5625 179.703125 C 279.5625 176.460938 276.929688 173.8125 273.675781 173.8125 L 38.152344 173.8125 C 34.898438 173.8125 32.261719 176.460938 32.261719 179.703125 L 32.261719 267.144531 C 32.261719 308.578125 55.84375 344.507812 90.320312 362.234375 Z M 337.085938 374.011719 L 355.203125 374.011719 C 358.457031 374.011719 361.09375 371.375 361.09375 368.121094 C 361.09375 364.878906 358.457031 362.234375 355.203125 362.234375 L 337.085938 362.234375 C 333.835938 362.234375 331.199219 364.878906 331.199219 368.121094 C 331.199219 371.375 333.835938 374.011719 337.085938 374.011719 Z M 172.691406 362.234375 L 139.136719 362.234375 C 86.613281 362.234375 44.039062 319.660156 44.039062 267.144531 L 44.039062 185.589844 L 267.789062 185.589844 C 267.789062 185.589844 267.789062 267.144531 267.789062 267.144531 C 267.789062 319.660156 225.210938 362.234375 172.691406 362.234375 Z M 294.875 202.839844 C 297.375 201.308594 304.566406 199.015625 312.746094 198.472656 C 320.644531 197.9375 329.613281 198.988281 335.972656 204.886719 C 341.542969 210.046875 344.8125 218.773438 344.332031 232.558594 C 343.671875 251.636719 339.042969 262.578125 331.816406 268.503906 C 326.679688 272.707031 320.375 274.191406 313.933594 274.617188 C 306.605469 275.097656 299.066406 274.175781 292.390625 273.496094 C 289.15625 273.160156 286.269531 275.523438 285.933594 278.757812 C 285.605469 281.984375 287.960938 284.882812 291.195312 285.207031 C 306.558594 286.777344 325.808594 288.632812 339.269531 277.617188 C 348.335938 270.199219 355.265625 256.882812 356.101562 232.96875 C 356.742188 214.523438 351.425781 203.15625 343.980469 196.253906 C 335.15625 188.074219 322.910156 185.988281 311.957031 186.722656 C 301.277344 187.429688 291.972656 190.800781 288.714844 192.808594 C 285.941406 194.503906 285.070312 198.136719 286.773438 200.898438 C 288.476562 203.671875 292.101562 204.539062 294.875 202.839844 Z M 236.082031 215.03125 L 236.082031 269.382812 C 236.082031 272.636719 238.71875 275.269531 241.972656 275.269531 C 245.222656 275.269531 247.859375 272.636719 247.859375 269.382812 L 247.859375 215.03125 C 247.859375 211.789062 245.222656 209.144531 241.972656 209.144531 C 238.71875 209.144531 236.082031 211.789062 236.082031 215.03125 Z M 78.523438 59.085938 C 73.082031 68.859375 67.238281 80.257812 68.761719 91.480469 C 69.828125 99.433594 74.167969 106.328125 78.714844 113.128906 C 82.257812 118.449219 86.007812 123.675781 86.914062 129.871094 C 87.367188 132.933594 86.425781 135.949219 85.074219 138.855469 C 83.371094 142.542969 80.960938 146.039062 78.796875 149.21875 C 76.96875 151.910156 77.664062 155.570312 80.355469 157.398438 C 83.046875 159.230469 86.707031 158.53125 88.535156 155.839844 C 93.996094 147.804688 100.003906 137.933594 98.570312 128.160156 C 97.402344 120.242188 93.039062 113.375 88.507812 106.589844 C 84.964844 101.300781 81.261719 96.089844 80.429688 89.902344 C 79.242188 81.125 84.558594 72.449219 88.816406 64.8125 C 90.390625 61.964844 89.367188 58.378906 86.535156 56.804688 C 83.6875 55.21875 80.101562 56.242188 78.523438 59.085938 Z M 212.539062 59.085938 C 207.105469 68.859375 201.261719 80.257812 202.773438 91.480469 C 203.851562 99.433594 208.191406 106.328125 212.730469 113.128906 C 216.28125 118.449219 220.03125 123.675781 220.9375 129.871094 C 221.390625 132.933594 220.4375 135.949219 219.097656 138.855469 C 217.394531 142.542969 214.984375 146.039062 212.820312 149.21875 C 210.988281 151.910156 211.6875 155.570312 214.378906 157.398438 C 217.070312 159.230469 220.726562 158.53125 222.558594 155.839844 C 228.019531 147.804688 234.027344 137.933594 232.585938 128.160156 C 231.425781 120.242188 227.058594 113.375 222.523438 106.589844 C 218.988281 101.300781 215.285156 96.089844 214.449219 89.902344 C 213.265625 81.125 218.582031 72.449219 222.828125 64.8125 C 224.414062 61.964844 223.390625 58.378906 220.546875 56.804688 C 217.710938 55.21875 214.125 56.242188 212.539062 59.085938 Z M 141.726562 4.734375 C 136.292969 14.507812 130.441406 25.902344 131.960938 37.128906 C 133.039062 45.082031 137.371094 51.976562 141.917969 58.777344 C 145.46875 64.09375 149.210938 69.324219 150.125 75.519531 C 150.570312 78.582031 149.625 81.597656 148.277344 84.503906 C 146.574219 88.191406 144.171875 91.6875 142 94.867188 C 140.179688 97.558594 140.875 101.21875 143.558594 103.046875 C 146.246094 104.878906 149.917969 104.179688 151.738281 101.488281 C 157.199219 93.453125 163.207031 83.582031 161.773438 73.804688 C 160.613281 65.890625 156.238281 59.023438 151.710938 52.238281 C 148.175781 46.949219 144.472656 41.738281 143.628906 35.550781 C 142.441406 26.773438 147.769531 18.097656 152.019531 10.460938 C 153.59375 7.613281 152.570312 4.027344 149.734375 2.453125 C 146.890625 0.867188 143.304688 1.890625 141.726562 4.734375 Z M 141.726562 4.734375 " fill-opacity="1" fill-rule="evenodd"/></g></svg>