<svg xmlns="http://www.w3.org/2000/svg" xmlns:xlink="http://www.w3.org/1999/xlink" width="500" zoomAndPan="magnify" viewBox="0 0 375 374.999991" height="500" preserveAspectRatio="xMidYMid meet" version="1.0"><path fill="#ffffff" d="M 373.601562 177.179688 C 372.160156 156.8125 365.761719 137.347656 357.199219 118.960938 C 351.972656 107.695312 345.84375 96.882812 339.265625 86.335938 C 330.433594 72.097656 321.242188 57.949219 309.527344 45.871094 C 297.992188 34.066406 284.113281 25.324219 268.878906 18.925781 C 249.144531 10.722656 227.695312 6.039062 206.515625 3.152344 C 186.960938 0.539062 167.222656 0 147.757812 3.425781 C 130.722656 6.398438 114.410156 12.707031 99.539062 21.359375 C 83.226562 30.910156 68.628906 43.078125 55.019531 56.144531 C 38.078125 72.277344 21.855469 90.304688 13.203125 112.472656 C 8.425781 124.550781 7.886719 138.246094 6.261719 150.59375 C 5.273438 157.984375 4.011719 165.285156 2.75 172.675781 C 1.667969 178.894531 0.765625 185.113281 0.496094 191.421875 C 0.226562 198.269531 0.765625 205.210938 1.847656 211.96875 C 3.289062 221.339844 5.722656 230.535156 8.425781 239.546875 C 11.671875 250.539062 15.003906 261.535156 19.601562 271.988281 C 22.484375 278.480469 26.179688 284.425781 31.046875 289.652344 C 36.90625 296.050781 43.574219 301.550781 49.703125 307.589844 C 66.554688 324.082031 81.335938 343.636719 103.144531 354 C 114.5 359.410156 126.757812 363.011719 138.742188 366.617188 C 147.484375 369.230469 156.40625 371.664062 165.421875 373.105469 C 173.621094 374.460938 181.914062 375 190.203125 374.460938 C 199.847656 373.917969 209.398438 372.207031 218.773438 370.132812 C 229.949219 367.609375 241.121094 364.636719 252.117188 361.390625 C 260.140625 358.957031 268.160156 356.253906 275.820312 352.921875 C 289.15625 347.0625 300.785156 338.320312 310.335938 327.234375 C 323.222656 312.183594 333.136719 294.699219 342.871094 277.578125 C 352.0625 261.445312 360.804688 244.863281 366.753906 227.199219 C 372.070312 211.15625 374.773438 194.125 373.601562 177.179688 Z M 170.015625 364.90625 C 169.925781 364.90625 169.925781 364.90625 170.015625 364.90625 Z M 364.679688 190.699219 C 364.589844 192.773438 364.410156 194.753906 364.230469 196.828125 C 364.140625 197.730469 364.050781 198.71875 363.871094 199.621094 C 363.871094 199.800781 363.871094 199.980469 363.78125 199.980469 C 363.78125 199.980469 363.78125 200.070312 363.78125 200.164062 C 363.691406 200.792969 363.597656 201.332031 363.507812 201.964844 C 362.246094 209.984375 360.175781 217.828125 357.5625 225.488281 C 356.839844 227.46875 356.121094 229.453125 355.398438 231.433594 C 355.039062 232.425781 354.585938 233.417969 354.226562 234.410156 C 354.046875 234.859375 353.867188 235.308594 353.6875 235.761719 C 353.597656 235.941406 353.324219 236.570312 353.234375 236.753906 C 351.523438 240.808594 349.71875 244.773438 347.738281 248.738281 C 343.59375 257.300781 338.996094 265.589844 334.308594 273.792969 C 329.082031 282.894531 323.855469 291.996094 318.175781 300.828125 C 315.652344 304.703125 313.128906 308.578125 310.335938 312.273438 C 307.902344 315.609375 306.191406 317.863281 303.21875 321.195312 C 300.785156 323.992188 298.351562 326.605469 295.648438 329.128906 C 294.386719 330.300781 293.125 331.472656 291.773438 332.550781 C 291.140625 333.09375 290.511719 333.542969 289.878906 334.085938 C 289.789062 334.175781 289.789062 334.175781 289.699219 334.265625 C 289.699219 334.265625 289.609375 334.265625 289.609375 334.355469 C 289.160156 334.625 288.796875 334.984375 288.347656 335.257812 C 282.851562 339.3125 276.8125 342.554688 270.59375 345.351562 C 270.234375 345.53125 269.871094 345.621094 269.511719 345.800781 C 269.421875 345.890625 268.972656 346.070312 268.789062 346.070312 C 267.890625 346.429688 267.078125 346.792969 266.175781 347.152344 C 264.375 347.875 262.480469 348.503906 260.679688 349.136719 C 256.625 350.578125 252.570312 351.839844 248.511719 353.011719 C 237.609375 356.253906 226.613281 359.136719 215.527344 361.660156 C 210.75 362.742188 205.886719 363.644531 201.019531 364.457031 C 200.476562 364.546875 199.9375 364.636719 199.484375 364.726562 C 199.304688 364.726562 199.214844 364.726562 199.035156 364.816406 C 198.945312 364.816406 198.765625 364.816406 198.675781 364.816406 C 197.59375 364.90625 196.511719 365.085938 195.429688 365.175781 C 193.359375 365.355469 191.285156 365.535156 189.210938 365.71875 C 185.246094 365.898438 181.28125 365.898438 177.40625 365.71875 C 175.421875 365.628906 173.53125 365.445312 171.546875 365.175781 C 171.097656 365.085938 170.648438 365.085938 170.195312 364.996094 C 170.105469 364.996094 170.105469 364.996094 170.015625 364.996094 C 169.925781 364.996094 169.746094 364.996094 169.65625 364.90625 C 168.574219 364.726562 167.582031 364.546875 166.5 364.457031 C 157.667969 362.921875 148.925781 360.582031 140.367188 357.964844 C 128.832031 354.542969 117.023438 351.207031 106.210938 345.890625 C 96.117188 340.933594 87.554688 333.8125 79.53125 325.972656 C 83.316406 322.367188 87.195312 318.761719 90.980469 315.160156 C 92.242188 313.898438 92.332031 311.554688 90.980469 310.382812 C 89.625 309.121094 87.554688 309.121094 86.203125 310.382812 C 82.417969 313.988281 78.632812 317.59375 74.757812 321.195312 C 72.054688 318.402344 69.347656 315.519531 66.644531 312.726562 C 74.667969 305.785156 82.417969 298.574219 89.808594 291.097656 C 91.070312 289.835938 91.070312 287.582031 89.808594 286.320312 C 88.546875 285.058594 86.292969 285.058594 85.03125 286.320312 C 77.640625 293.800781 69.890625 300.917969 61.960938 307.859375 C 59.707031 305.515625 57.363281 303.171875 55.019531 300.828125 C 58.714844 297.222656 62.410156 293.710938 66.105469 290.105469 C 67.367188 288.84375 67.457031 286.5 66.105469 285.328125 C 64.753906 284.066406 62.679688 283.976562 61.328125 285.328125 C 57.542969 288.933594 53.847656 292.539062 50.0625 296.144531 C 45.558594 291.996094 41.050781 287.941406 36.90625 283.433594 C 35.914062 282.265625 34.921875 281.183594 33.929688 279.921875 C 33.839844 279.832031 33.75 279.742188 33.660156 279.648438 C 33.390625 279.289062 33.210938 279.019531 32.941406 278.660156 C 32.488281 278.027344 32.039062 277.308594 31.589844 276.675781 C 29.695312 273.613281 28.074219 270.457031 26.632812 267.125 C 26.542969 266.941406 26.449219 266.671875 26.359375 266.492188 C 26.179688 266.042969 26 265.5 25.820312 265.050781 C 25.371094 263.878906 24.917969 262.707031 24.46875 261.535156 C 23.566406 259.011719 22.664062 256.488281 21.765625 253.875 C 19.78125 248.015625 17.980469 242.160156 16.265625 236.210938 C 13.652344 227.378906 11.402344 218.457031 9.957031 209.355469 C 9.867188 208.902344 9.867188 208.542969 9.777344 208.09375 C 9.777344 208.003906 9.777344 207.914062 9.777344 207.824219 C 9.777344 207.824219 9.777344 207.734375 9.777344 207.640625 C 9.6875 206.742188 9.597656 205.839844 9.417969 204.847656 C 9.238281 203.226562 9.148438 201.605469 9.058594 199.980469 C 8.878906 197.007812 8.878906 193.945312 9.058594 190.96875 C 9.238281 188.085938 9.507812 185.203125 9.867188 182.316406 C 9.867188 182.316406 9.867188 182.226562 9.867188 182.226562 C 9.957031 181.867188 9.957031 181.507812 10.046875 181.238281 C 10.140625 180.425781 10.320312 179.703125 10.410156 178.894531 C 10.679688 177.359375 10.859375 175.828125 11.128906 174.296875 C 12.390625 166.90625 13.652344 159.605469 14.644531 152.125 C 16.355469 139.507812 16.808594 126.710938 21.496094 114.726562 C 25.640625 104.363281 32.21875 94.359375 39.25 85.617188 C 46.007812 77.144531 53.757812 69.484375 61.597656 62.003906 C 68.539062 55.425781 75.65625 49.117188 83.226562 43.257812 C 83.410156 43.078125 83.589844 42.988281 83.769531 42.808594 C 83.769531 42.808594 83.859375 42.71875 83.949219 42.71875 C 84.398438 42.359375 84.761719 42.085938 85.210938 41.726562 C 86.203125 41.003906 87.101562 40.285156 88.09375 39.5625 C 89.898438 38.300781 91.699219 36.949219 93.503906 35.777344 C 97.015625 33.433594 100.621094 31.183594 104.226562 29.019531 C 107.832031 26.945312 111.617188 24.964844 115.402344 23.160156 C 116.304688 22.710938 117.292969 22.261719 118.195312 21.898438 C 118.644531 21.71875 119.097656 21.539062 119.546875 21.269531 C 119.726562 21.179688 119.90625 21.089844 120.089844 21 C 120.089844 21 120.539062 20.816406 120.71875 20.726562 C 120.898438 20.636719 121.078125 20.546875 121.078125 20.546875 C 121.261719 20.457031 121.441406 20.367188 121.621094 20.277344 C 122.070312 20.097656 122.523438 19.917969 122.972656 19.738281 C 123.964844 19.375 125.046875 18.925781 126.035156 18.566406 C 133.878906 15.679688 141.898438 13.519531 150.097656 12.167969 C 151.179688 11.984375 152.261719 11.804688 153.253906 11.625 C 153.792969 11.535156 154.246094 11.445312 154.785156 11.445312 C 154.875 11.445312 154.964844 11.445312 155.054688 11.445312 C 155.328125 11.445312 155.507812 11.355469 155.777344 11.355469 C 157.941406 11.085938 160.191406 10.816406 162.355469 10.632812 C 166.953125 10.273438 171.457031 10.09375 176.054688 10.09375 C 197.324219 10.09375 217.871094 13.519531 238.507812 18.746094 C 247.972656 21.179688 257.253906 24.0625 266.265625 27.757812 C 266.265625 27.757812 266.355469 27.757812 266.355469 27.847656 C 266.539062 27.9375 266.71875 28.027344 266.988281 28.117188 C 267.527344 28.386719 268.070312 28.570312 268.609375 28.839844 C 269.601562 29.289062 270.503906 29.742188 271.496094 30.191406 C 273.386719 31.09375 275.1875 31.992188 276.992188 32.984375 C 280.417969 34.878906 283.839844 36.859375 286.996094 39.113281 C 288.527344 40.195312 290.058594 41.277344 291.589844 42.449219 C 291.589844 42.449219 291.589844 42.449219 291.683594 42.449219 C 291.773438 42.539062 291.953125 42.628906 292.042969 42.71875 C 292.402344 42.988281 292.761719 43.257812 293.035156 43.527344 C 293.84375 44.160156 294.566406 44.789062 295.285156 45.421875 C 298.082031 47.765625 300.695312 50.289062 303.21875 52.902344 C 305.832031 55.605469 308.355469 58.398438 310.699219 61.375 C 311.328125 62.09375 311.867188 62.90625 312.5 63.625 C 312.589844 63.714844 312.679688 63.808594 312.769531 63.898438 C 307.632812 66.058594 302.675781 68.761719 298.171875 72.1875 C 297.449219 72.730469 296.910156 73.269531 296.636719 74.171875 C 296.457031 74.980469 296.546875 76.0625 297 76.785156 C 297.898438 78.136719 300.152344 79.128906 301.59375 77.957031 C 303.757812 76.332031 306.011719 74.800781 308.355469 73.449219 C 309.527344 72.820312 310.699219 72.1875 311.867188 71.558594 C 312.5 71.285156 313.128906 70.925781 313.761719 70.65625 C 314.03125 70.476562 314.390625 70.386719 314.664062 70.207031 C 314.753906 70.207031 314.84375 70.117188 314.933594 70.117188 C 314.933594 70.117188 314.933594 70.117188 315.023438 70.117188 C 315.023438 70.117188 315.023438 70.117188 315.113281 70.117188 C 315.746094 69.84375 316.195312 69.574219 316.644531 69.125 C 316.824219 69.394531 317.097656 69.753906 317.277344 70.023438 C 319.800781 73.539062 322.234375 77.234375 324.667969 80.839844 C 317.726562 85.164062 310.96875 89.941406 304.480469 94.988281 C 303.035156 96.070312 303.308594 98.59375 304.480469 99.765625 C 305.921875 101.207031 307.8125 100.847656 309.253906 99.765625 C 315.382812 95.078125 321.78125 90.664062 328.363281 86.609375 C 329.261719 88.050781 330.164062 89.492188 331.066406 90.933594 C 332.597656 93.367188 334.039062 95.800781 335.480469 98.234375 C 331.15625 101.386719 327.007812 104.722656 322.953125 108.238281 C 321.601562 109.410156 321.691406 111.84375 322.953125 113.015625 C 324.394531 114.367188 326.289062 114.277344 327.730469 113.015625 C 329.714844 111.210938 331.785156 109.5 333.949219 107.875 C 334.488281 107.515625 334.941406 107.066406 335.480469 106.707031 C 335.480469 106.707031 335.570312 106.613281 335.570312 106.613281 C 335.570312 106.613281 335.570312 106.613281 335.75 106.523438 C 335.75 106.523438 335.839844 106.433594 335.839844 106.433594 C 336.023438 106.253906 336.292969 106.074219 336.472656 105.894531 C 337.285156 105.261719 338.003906 104.722656 338.816406 104.183594 C 347.558594 119.59375 355.128906 135.722656 359.722656 152.847656 C 360.894531 157.265625 361.886719 161.679688 362.699219 166.1875 C 362.878906 167.265625 363.058594 168.347656 363.238281 169.429688 C 363.238281 169.609375 363.328125 169.882812 363.328125 170.0625 C 363.328125 170.0625 363.328125 170.0625 363.328125 170.152344 C 363.417969 170.691406 363.507812 171.324219 363.507812 171.863281 C 363.78125 174.027344 363.960938 176.097656 364.050781 178.261719 C 364.859375 182.40625 364.953125 186.554688 364.679688 190.699219 Z M 364.679688 190.699219 " fill-opacity="1" fill-rule="nonzero"/><path fill="#ffffff" d="M 159.921875 172.40625 C 159.921875 172.496094 159.921875 172.496094 159.921875 172.40625 C 160.011719 172.40625 160.101562 172.3125 160.191406 172.3125 C 160.191406 172.40625 160.011719 172.40625 159.921875 172.40625 Z M 159.921875 172.40625 " fill-opacity="1" fill-rule="nonzero"/><path fill="#ffffff" d="M 155.054688 175.289062 C 154.964844 175.378906 154.875 175.46875 154.785156 175.558594 C 154.785156 175.558594 154.964844 175.378906 155.054688 175.289062 Z M 155.054688 175.289062 " fill-opacity="1" fill-rule="nonzero"/><path fill="#ffffff" d="M 190.652344 174.746094 C 186.777344 165.734375 177.136719 161.050781 167.671875 161.589844 C 158.03125 162.128906 148.65625 166.90625 143.160156 174.929688 C 136.128906 185.292969 138.472656 199.980469 147.847656 208.09375 C 157.21875 216.113281 170.917969 215.753906 181.730469 210.976562 C 186.597656 208.8125 191.195312 205.117188 193.269531 200.070312 C 195.972656 193.671875 194.621094 186.011719 192.546875 179.703125 C 192.007812 177.992188 191.285156 176.371094 190.652344 174.746094 Z M 148.117188 190.789062 C 148.117188 190.96875 148.207031 191.058594 148.207031 191.058594 C 148.117188 190.96875 148.117188 190.878906 148.117188 190.789062 Z M 185.605469 194.484375 C 185.605469 194.574219 185.605469 194.664062 185.515625 194.84375 C 185.425781 195.117188 185.425781 195.386719 185.335938 195.746094 C 185.246094 196.015625 185.15625 196.285156 185.066406 196.558594 C 184.886719 196.917969 184.617188 197.367188 184.4375 197.730469 C 184.34375 197.910156 184.164062 198.089844 184.074219 198.269531 C 184.074219 198.269531 184.074219 198.269531 184.074219 198.359375 C 183.355469 199.082031 182.722656 199.800781 182.003906 200.523438 C 182.003906 200.523438 181.914062 200.613281 181.820312 200.703125 C 181.730469 200.792969 181.550781 200.882812 181.550781 200.882812 C 181.101562 201.242188 180.558594 201.515625 180.019531 201.875 C 179.570312 202.144531 179.117188 202.414062 178.667969 202.59375 C 178.398438 202.6875 178.21875 202.867188 177.945312 202.957031 C 177.855469 202.957031 177.40625 203.136719 177.226562 203.226562 C 177.136719 203.226562 177.046875 203.316406 177.046875 203.316406 C 176.773438 203.40625 176.503906 203.496094 176.234375 203.585938 C 175.605469 203.765625 174.972656 204.039062 174.34375 204.21875 C 173.261719 204.578125 172.089844 204.847656 170.917969 205.027344 C 170.648438 205.117188 170.285156 205.117188 169.925781 205.210938 C 169.296875 205.300781 168.753906 205.300781 168.125 205.390625 C 166.953125 205.480469 165.691406 205.480469 164.519531 205.390625 C 163.886719 205.390625 163.347656 205.300781 162.714844 205.300781 C 162.714844 205.300781 162.625 205.300781 162.625 205.300781 C 162.445312 205.300781 162.085938 205.210938 161.996094 205.210938 C 160.914062 205.027344 159.832031 204.757812 158.75 204.398438 C 158.480469 204.308594 158.300781 204.21875 158.03125 204.128906 C 157.488281 203.855469 156.949219 203.585938 156.40625 203.316406 C 155.867188 202.957031 155.328125 202.59375 154.785156 202.234375 C 154.785156 202.234375 154.695312 202.234375 154.695312 202.144531 C 154.695312 202.144531 154.695312 202.144531 154.605469 202.144531 C 154.246094 201.875 153.972656 201.605469 153.613281 201.242188 C 153.164062 200.792969 152.710938 200.34375 152.261719 199.800781 C 152.082031 199.53125 151.8125 199.261719 151.632812 199.082031 C 151.542969 198.992188 151.449219 198.902344 151.449219 198.808594 C 150.640625 197.640625 150.007812 196.46875 149.378906 195.207031 C 149.289062 195.117188 149.289062 194.933594 149.289062 194.933594 C 149.109375 194.574219 149.019531 194.214844 148.925781 193.855469 C 148.746094 193.132812 148.566406 192.5 148.386719 191.78125 C 148.296875 191.421875 148.296875 191.148438 148.207031 190.789062 C 148.207031 190.789062 148.207031 190.789062 148.207031 190.699219 C 148.207031 190.609375 148.207031 190.519531 148.207031 190.519531 C 148.117188 189.796875 148.117188 189.078125 148.117188 188.355469 C 148.117188 187.816406 148.117188 187.273438 148.207031 186.824219 C 148.207031 186.644531 148.296875 186.375 148.296875 186.191406 C 148.476562 185.203125 148.746094 184.300781 149.109375 183.308594 C 149.199219 183.128906 149.199219 182.949219 149.289062 182.769531 C 149.46875 182.316406 149.648438 181.867188 149.917969 181.507812 C 150.371094 180.695312 150.820312 179.882812 151.359375 179.164062 C 151.359375 179.164062 151.449219 179.074219 151.449219 179.074219 C 151.542969 178.984375 151.632812 178.894531 151.722656 178.804688 C 151.992188 178.441406 152.351562 178.082031 152.710938 177.722656 C 153.34375 177 154.066406 176.371094 154.785156 175.738281 C 154.785156 175.738281 154.785156 175.738281 154.875 175.648438 C 154.875 175.648438 154.875 175.648438 155.144531 175.46875 C 155.144531 175.46875 155.144531 175.46875 155.234375 175.46875 C 155.328125 175.46875 155.328125 175.378906 155.417969 175.378906 C 155.417969 175.378906 155.328125 175.46875 155.328125 175.46875 C 155.6875 175.199219 156.136719 174.929688 156.496094 174.65625 C 157.308594 174.117188 158.121094 173.667969 159.019531 173.214844 C 159.382812 173.035156 159.742188 172.855469 160.101562 172.675781 C 160.101562 172.675781 160.011719 172.675781 160.011719 172.675781 C 160.101562 172.675781 160.101562 172.675781 160.191406 172.585938 C 160.191406 172.585938 160.28125 172.585938 160.28125 172.585938 C 160.644531 172.40625 160.644531 172.40625 160.464844 172.496094 C 160.554688 172.40625 160.734375 172.40625 160.824219 172.3125 C 162.625 171.683594 164.429688 171.234375 166.320312 170.871094 C 166.5 170.871094 166.589844 170.871094 166.773438 170.78125 C 167.222656 170.691406 167.761719 170.691406 168.214844 170.691406 C 169.113281 170.691406 170.105469 170.691406 171.007812 170.691406 C 171.1875 170.691406 171.457031 170.691406 171.636719 170.78125 C 171.636719 170.78125 171.726562 170.78125 171.726562 170.78125 C 171.820312 170.78125 172 170.78125 172 170.871094 C 172.269531 170.871094 172.449219 170.960938 172.71875 171.050781 C 173.621094 171.234375 174.523438 171.503906 175.332031 171.773438 C 175.511719 171.863281 175.605469 171.863281 175.785156 171.953125 C 176.144531 172.132812 176.59375 172.3125 176.957031 172.496094 C 177.765625 172.945312 178.398438 173.484375 179.117188 173.9375 C 177.855469 173.125 179.027344 173.9375 179.390625 174.207031 C 179.75 174.476562 180.019531 174.835938 180.378906 175.199219 C 180.558594 175.378906 180.742188 175.558594 180.921875 175.738281 C 180.921875 175.738281 180.921875 175.828125 181.011719 175.828125 C 181.101562 175.917969 181.191406 176.007812 181.191406 176.097656 C 181.371094 176.28125 181.460938 176.550781 181.640625 176.730469 C 182.183594 177.542969 182.632812 178.441406 182.992188 179.253906 C 182.992188 179.34375 182.992188 179.34375 183.082031 179.433594 C 183.175781 179.703125 183.265625 179.976562 183.445312 180.335938 C 183.714844 181.054688 183.984375 181.777344 184.164062 182.5 C 184.617188 183.941406 184.976562 185.382812 185.335938 186.914062 C 185.515625 187.636719 185.605469 188.265625 185.699219 188.988281 C 185.699219 189.078125 185.699219 189.078125 185.699219 189.078125 C 185.699219 189.078125 185.699219 189.167969 185.699219 189.167969 C 185.789062 189.617188 185.789062 190.070312 185.789062 190.519531 C 185.699219 191.78125 185.699219 193.132812 185.605469 194.484375 Z M 185.605469 194.484375 " fill-opacity="1" fill-rule="nonzero"/><path fill="#ffffff" d="M 46.636719 223.59375 C 46.546875 223.59375 46.546875 223.59375 46.457031 223.683594 C 46.367188 223.683594 46.277344 223.773438 46.1875 223.773438 C 46.1875 223.773438 46.097656 223.773438 46.097656 223.863281 C 46.457031 223.773438 46.636719 223.59375 46.636719 223.59375 Z M 46.636719 223.59375 " fill-opacity="1" fill-rule="nonzero"/><path fill="#ffffff" d="M 42.042969 234.859375 C 42.132812 235.039062 42.132812 235.21875 42.222656 235.398438 C 42.222656 235.398438 42.222656 235.21875 42.042969 234.859375 Z M 42.042969 234.859375 " fill-opacity="1" fill-rule="nonzero"/><path fill="#ffffff" d="M 43.035156 227.109375 C 42.945312 227.289062 42.851562 227.378906 42.851562 227.558594 C 42.851562 227.558594 42.851562 227.558594 42.851562 227.648438 C 43.125 227.109375 43.125 227.019531 43.035156 227.109375 Z M 43.035156 227.109375 " fill-opacity="1" fill-rule="nonzero"/><path fill="#ffffff" d="M 69.4375 232.066406 C 69.4375 232.066406 69.4375 231.976562 69.4375 232.066406 C 69.347656 231.976562 69.347656 231.976562 69.347656 231.976562 C 69.257812 231.886719 69.167969 231.796875 68.988281 231.707031 C 68.898438 231.613281 68.988281 231.707031 69.4375 232.066406 Z M 69.4375 232.066406 " fill-opacity="1" fill-rule="nonzero"/><path fill="#ffffff" d="M 71.332031 222.332031 C 67.90625 219.988281 64.300781 218.097656 60.425781 216.566406 C 56.640625 215.03125 52.40625 213.859375 48.261719 214.132812 C 43.394531 214.492188 39.25 216.566406 36.363281 220.621094 C 30.417969 228.820312 32.667969 241.167969 38.078125 249.007812 C 41.589844 254.144531 46.367188 257.929688 52.136719 260.183594 C 57.902344 262.4375 64.84375 262.617188 70.699219 260.632812 C 76.917969 258.5625 82.507812 254.144531 83.859375 247.386719 C 85.300781 240.265625 82.777344 232.964844 78 227.648438 C 76.109375 225.578125 73.675781 223.953125 71.332031 222.332031 Z M 73.585938 248.738281 C 73.765625 248.46875 73.855469 248.378906 73.855469 248.378906 C 73.855469 248.558594 73.765625 248.648438 73.585938 248.738281 Z M 75.296875 245.042969 C 75.296875 244.863281 75.386719 244.683594 75.386719 244.503906 C 75.296875 244.683594 75.296875 244.863281 75.296875 245.042969 C 75.207031 245.3125 75.117188 245.582031 75.117188 245.855469 C 75.027344 246.125 74.9375 246.304688 74.9375 246.574219 C 74.9375 246.664062 74.847656 246.753906 74.847656 246.84375 C 74.667969 247.296875 74.667969 247.207031 74.9375 246.664062 C 74.9375 247.027344 74.394531 247.746094 74.214844 248.015625 C 74.125 248.105469 74.125 248.289062 74.035156 248.378906 C 74.035156 248.378906 74.035156 248.378906 73.855469 248.558594 C 73.765625 248.648438 73.675781 248.738281 73.585938 248.828125 C 73.222656 249.1875 72.953125 249.550781 72.59375 249.820312 C 72.503906 249.910156 72.234375 250.089844 72.234375 250.089844 C 71.78125 250.449219 71.242188 250.722656 70.792969 250.992188 C 70.609375 251.082031 70.429688 251.171875 70.25 251.261719 C 70.070312 251.351562 69.890625 251.441406 69.710938 251.53125 C 69.257812 251.710938 69.347656 251.710938 69.980469 251.441406 C 69.167969 252.074219 67.636719 252.253906 66.734375 252.523438 C 66.195312 252.613281 65.65625 252.703125 65.113281 252.882812 C 65.113281 252.882812 65.023438 252.882812 65.023438 252.882812 C 64.664062 252.882812 64.394531 252.972656 64.03125 252.972656 C 62.769531 253.0625 61.507812 253.0625 60.246094 252.972656 C 60.15625 252.972656 59.976562 252.972656 59.886719 252.972656 C 59.347656 252.882812 59.4375 252.882812 60.066406 252.972656 C 59.886719 252.972656 59.527344 252.882812 59.347656 252.882812 C 58.535156 252.703125 57.722656 252.523438 56.914062 252.34375 C 56.28125 252.164062 55.742188 251.984375 55.199219 251.800781 C 55.019531 251.710938 53.9375 251.261719 54.839844 251.710938 C 54.570312 251.621094 54.390625 251.53125 54.117188 251.351562 C 52.855469 250.722656 51.683594 250.089844 50.605469 249.277344 C 50.515625 249.1875 50.421875 249.097656 50.332031 249.007812 C 50.421875 249.097656 50.421875 249.097656 50.515625 249.1875 C 50.421875 249.007812 50.152344 248.917969 50.0625 248.828125 C 49.613281 248.46875 49.160156 248.015625 48.710938 247.566406 C 47.898438 246.84375 47.179688 245.945312 46.457031 245.132812 C 46.457031 245.132812 46.457031 245.132812 46.457031 245.042969 C 46.277344 244.773438 46.097656 244.59375 45.917969 244.320312 C 45.648438 243.871094 45.375 243.511719 45.105469 243.058594 C 44.835938 242.609375 44.566406 242.160156 44.296875 241.617188 C 44.113281 241.347656 43.933594 240.535156 43.664062 240.085938 C 43.753906 240.355469 43.753906 240.535156 43.664062 240.175781 C 43.664062 240.085938 43.574219 239.996094 43.574219 239.90625 C 43.484375 239.726562 43.394531 239.546875 43.394531 239.367188 C 43.214844 238.914062 43.035156 238.375 42.945312 237.921875 C 42.671875 237.113281 42.671875 236.210938 42.402344 235.398438 C 42.402344 235.398438 42.3125 235.128906 42.222656 234.859375 C 42.222656 234.859375 42.222656 234.859375 42.222656 234.769531 C 42.222656 234.769531 42.222656 234.769531 42.222656 234.679688 C 42.222656 234.5 42.222656 234.320312 42.132812 234.046875 C 42.132812 233.597656 42.042969 233.058594 42.042969 232.605469 C 42.042969 232.15625 42.042969 231.703125 42.042969 231.34375 C 42.042969 231.074219 42.042969 230.804688 42.132812 230.535156 C 42.3125 229.722656 42.492188 228.910156 42.671875 228.101562 C 42.761719 227.917969 42.851562 227.738281 42.851562 227.46875 C 42.851562 227.46875 42.851562 227.558594 42.761719 227.558594 C 42.761719 227.46875 42.851562 227.46875 42.851562 227.378906 C 42.945312 227.199219 43.035156 227.109375 43.035156 227.019531 C 43.125 226.75 43.304688 226.476562 43.394531 226.296875 C 43.574219 225.9375 43.753906 225.667969 44.023438 225.394531 C 44.113281 225.304688 44.296875 225.125 44.386719 225.035156 C 44.65625 224.765625 44.835938 224.585938 45.105469 224.316406 C 45.195312 224.226562 45.285156 224.132812 45.46875 224.132812 C 45.738281 223.953125 45.917969 223.863281 46.1875 223.773438 C 46.097656 223.773438 46.097656 223.773438 46.007812 223.773438 C 46.097656 223.773438 46.1875 223.773438 46.277344 223.683594 C 46.367188 223.683594 46.457031 223.59375 46.546875 223.59375 C 46.730469 223.503906 46.820312 223.503906 46.730469 223.59375 C 47 223.503906 47.269531 223.414062 47.539062 223.324219 C 47.71875 223.324219 47.898438 223.234375 48.082031 223.234375 C 48.800781 223.234375 49.433594 223.144531 50.152344 223.144531 C 50.515625 223.144531 50.964844 223.234375 51.324219 223.234375 C 51.503906 223.234375 51.683594 223.324219 51.867188 223.324219 C 53.578125 223.59375 55.199219 224.132812 56.824219 224.765625 C 57.273438 224.945312 57.722656 225.125 58.175781 225.304688 C 58.445312 225.394531 58.625 225.488281 58.894531 225.667969 C 59.796875 226.027344 60.609375 226.476562 61.507812 226.929688 C 63.222656 227.828125 64.84375 228.820312 66.375 229.8125 C 67.097656 230.261719 67.816406 230.804688 68.539062 231.34375 C 68.71875 231.523438 68.898438 231.613281 69.078125 231.796875 C 69.167969 231.796875 69.257812 231.976562 69.441406 232.066406 C 69.53125 232.15625 69.710938 232.246094 69.800781 232.335938 C 69.710938 232.246094 69.621094 232.246094 69.53125 232.15625 C 70.339844 232.785156 71.0625 233.417969 71.78125 234.136719 C 71.960938 234.410156 72.234375 234.589844 72.414062 234.859375 C 72.414062 234.859375 72.414062 234.949219 72.503906 234.949219 C 72.773438 235.398438 73.132812 235.851562 73.40625 236.300781 C 73.675781 236.84375 74.035156 237.382812 74.214844 237.921875 C 74.214844 238.011719 74.304688 238.011719 74.304688 238.105469 C 74.484375 238.464844 74.578125 238.734375 74.667969 239.09375 C 74.847656 239.636719 75.027344 240.085938 75.117188 240.628906 C 75.207031 240.898438 75.296875 241.257812 75.296875 241.527344 C 75.296875 241.617188 75.386719 242.339844 75.386719 242.160156 C 75.386719 242.25 75.386719 242.25 75.386719 242.25 C 75.386719 242.519531 75.386719 242.878906 75.386719 243.242188 C 75.386719 243.332031 75.476562 244.863281 75.296875 245.042969 Z M 75.296875 245.042969 " fill-opacity="1" fill-rule="nonzero"/><path fill="#ffffff" d="M 50.152344 248.828125 C 49.882812 248.558594 49.972656 248.648438 50.152344 248.828125 Z M 50.152344 248.828125 " fill-opacity="1" fill-rule="nonzero"/><path fill="#ffffff" d="M 144.0625 113.644531 C 148.117188 114.277344 151.992188 113.734375 155.777344 112.203125 C 159.113281 110.851562 162.175781 109.230469 165.421875 107.695312 C 170.46875 105.351562 175.605469 102.921875 179.480469 98.863281 C 183.265625 94.898438 185.605469 89.402344 185.066406 83.902344 C 184.707031 79.488281 182.8125 75.523438 179.839844 72.1875 C 174.070312 65.96875 164.789062 63.265625 156.496094 63.714844 C 146.496094 64.257812 137.390625 69.214844 132.074219 77.777344 C 131.445312 78.765625 130.902344 79.847656 130.363281 81.019531 C 127.296875 87.960938 126.847656 95.441406 130 102.378906 C 132.617188 108.148438 137.933594 112.742188 144.0625 113.644531 Z M 138.203125 85.707031 C 138.113281 85.886719 137.933594 86.425781 138.203125 85.707031 Z M 137.84375 97.964844 C 137.84375 97.964844 137.933594 98.144531 137.933594 98.234375 C 137.84375 98.144531 137.84375 97.964844 137.84375 97.964844 Z M 139.734375 101.207031 Z M 175.515625 88.949219 Z M 174.070312 79.398438 C 174.070312 79.398438 174.160156 79.398438 174.070312 79.398438 C 173.980469 79.21875 173.800781 78.949219 174.070312 79.398438 Z M 140.636719 81.378906 C 140.816406 81.199219 140.90625 81.019531 141.085938 80.839844 C 141.71875 80.027344 142.347656 79.308594 143.160156 78.585938 C 143.519531 78.226562 143.878906 77.867188 144.242188 77.59375 C 144.421875 77.503906 144.511719 77.324219 144.691406 77.234375 C 145.503906 76.695312 146.3125 76.152344 147.214844 75.613281 C 147.574219 75.433594 148.027344 75.164062 148.386719 74.980469 C 148.566406 74.890625 148.746094 74.800781 149.019531 74.710938 C 149.019531 74.710938 149.109375 74.710938 149.109375 74.710938 C 150.820312 74.082031 152.53125 73.539062 154.335938 73.179688 C 154.515625 73.179688 154.695312 73.089844 154.964844 73.089844 C 155.144531 73.089844 155.328125 73.089844 155.417969 73 C 155.6875 73 155.957031 72.910156 156.136719 72.910156 C 157.039062 72.820312 157.941406 72.820312 158.929688 72.820312 C 159.832031 72.820312 160.734375 72.910156 161.636719 73 C 161.726562 73 161.90625 73 161.996094 73.089844 C 162.445312 73.179688 162.898438 73.269531 163.347656 73.359375 C 164.25 73.539062 165.058594 73.808594 165.871094 74.082031 C 166.320312 74.171875 166.683594 74.351562 167.132812 74.53125 C 167.3125 74.621094 167.402344 74.621094 167.582031 74.710938 C 169.023438 75.433594 170.46875 76.152344 171.820312 77.144531 C 171.730469 77.054688 171.636719 76.964844 171.546875 76.875 C 171.636719 76.964844 171.730469 77.054688 171.820312 77.144531 C 172.269531 77.414062 172 77.324219 171.820312 77.144531 C 171.910156 77.144531 171.910156 77.234375 172 77.234375 C 172.359375 77.503906 172.628906 77.777344 172.992188 78.046875 C 173.53125 78.496094 173.890625 79.128906 174.433594 79.578125 C 174.523438 79.667969 174.523438 79.757812 174.613281 79.847656 C 174.882812 80.210938 175.0625 80.570312 175.242188 80.929688 C 175.421875 81.199219 175.515625 81.472656 175.695312 81.742188 C 175.695312 81.832031 175.785156 81.921875 175.785156 82.101562 C 176.054688 82.824219 176.144531 83.453125 176.324219 84.175781 C 176.324219 84.265625 176.324219 84.355469 176.324219 84.445312 C 176.324219 84.804688 176.324219 85.257812 176.324219 85.617188 C 176.324219 85.976562 176.324219 86.335938 176.234375 86.699219 C 176.234375 86.878906 176.144531 86.96875 176.144531 87.148438 C 176.054688 87.597656 175.964844 88.140625 175.785156 88.589844 C 175.695312 88.859375 175.605469 89.132812 175.515625 89.402344 C 175.515625 89.492188 175.421875 89.582031 175.421875 89.582031 C 175.152344 90.121094 174.882812 90.664062 174.523438 91.203125 C 174.433594 91.382812 174.34375 91.472656 174.253906 91.65625 C 174.160156 91.746094 173.980469 92.015625 173.980469 92.015625 C 173.171875 92.917969 172.269531 93.726562 171.367188 94.539062 C 171.277344 94.539062 171.277344 94.628906 171.277344 94.628906 C 171.007812 94.808594 170.828125 94.988281 170.558594 95.078125 C 170.015625 95.441406 169.476562 95.800781 168.84375 96.160156 C 167.761719 96.792969 166.683594 97.332031 165.601562 97.964844 C 163.617188 98.953125 161.542969 99.855469 159.5625 100.847656 C 158.121094 101.566406 156.679688 102.289062 155.144531 103.011719 C 154.785156 103.191406 154.425781 103.371094 154.066406 103.550781 C 153.882812 103.640625 153.703125 103.730469 153.523438 103.820312 C 153.613281 103.820312 153.613281 103.820312 153.613281 103.730469 C 153.523438 103.730469 153.523438 103.730469 153.523438 103.820312 C 152.710938 104.089844 151.992188 104.453125 151.179688 104.632812 C 150.460938 104.8125 149.828125 104.992188 149.109375 105.082031 C 149.109375 105.082031 148.746094 105.171875 148.476562 105.171875 C 148.027344 105.171875 147.574219 105.171875 147.125 105.171875 C 146.945312 105.171875 146.3125 105.082031 146.132812 105.082031 C 145.503906 104.992188 144.960938 104.8125 144.421875 104.632812 C 144.332031 104.632812 144.332031 104.632812 144.242188 104.542969 C 144.0625 104.453125 143.789062 104.363281 143.609375 104.273438 C 143.070312 104 142.527344 103.730469 142.078125 103.371094 C 142.078125 103.371094 141.988281 103.28125 141.988281 103.28125 C 141.898438 103.101562 141.449219 102.828125 141.355469 102.828125 C 140.90625 102.378906 140.457031 101.929688 140.003906 101.386719 C 140.003906 101.386719 140.003906 101.386719 140.003906 101.296875 C 139.914062 101.117188 139.554688 100.757812 139.554688 100.667969 C 139.195312 100.125 138.832031 99.496094 138.5625 98.953125 C 138.5625 98.953125 138.382812 98.683594 138.292969 98.503906 C 138.292969 98.414062 138.203125 98.234375 138.203125 98.144531 C 137.933594 97.511719 137.753906 96.792969 137.570312 96.160156 C 137.480469 95.621094 137.390625 95.078125 137.300781 94.628906 C 137.300781 94.449219 137.300781 94.359375 137.300781 94.179688 C 137.300781 93.816406 137.300781 93.457031 137.210938 93.097656 C 137.210938 92.464844 137.210938 91.835938 137.300781 91.113281 C 137.300781 91.023438 137.390625 90.664062 137.390625 90.484375 C 137.480469 90.210938 137.480469 89.941406 137.570312 89.582031 C 137.753906 88.859375 137.933594 88.230469 138.113281 87.507812 C 138.203125 87.148438 138.382812 86.699219 138.472656 86.335938 C 138.5625 86.15625 138.5625 85.976562 138.652344 85.886719 C 139.105469 84.894531 139.644531 83.902344 140.1875 82.914062 C 140.09375 82.28125 140.367188 81.832031 140.636719 81.378906 Z M 140.636719 81.378906 " fill-opacity="1" fill-rule="nonzero"/><path fill="#ffffff" d="M 153.523438 103.460938 C 153.703125 103.371094 153.972656 103.28125 153.523438 103.460938 Z M 153.523438 103.460938 " fill-opacity="1" fill-rule="nonzero"/><path fill="#ffffff" d="M 267.710938 269.464844 C 267.527344 269.648438 267.617188 269.648438 267.710938 269.464844 Z M 267.710938 269.464844 " fill-opacity="1" fill-rule="nonzero"/><path fill="#ffffff" d="M 234.542969 269.648438 C 234.632812 269.738281 234.722656 269.917969 234.722656 270.007812 C 234.542969 269.375 234.453125 269.464844 234.542969 269.648438 Z M 234.542969 269.648438 " fill-opacity="1" fill-rule="nonzero"/><path fill="#ffffff" d="M 233.191406 258.5625 C 233.191406 258.5625 233.191406 258.652344 233.101562 258.652344 C 233.101562 258.742188 233.101562 258.742188 233.011719 258.832031 C 233.011719 259.101562 233.011719 259.28125 233.191406 258.5625 Z M 233.191406 258.5625 " fill-opacity="1" fill-rule="nonzero"/><path fill="#ffffff" d="M 258.425781 250.449219 C 258.335938 250.359375 258.246094 250.359375 258.066406 250.269531 C 258.066406 250.269531 257.976562 250.269531 257.976562 250.269531 C 258.515625 250.539062 258.515625 250.539062 258.425781 250.449219 Z M 258.425781 250.449219 " fill-opacity="1" fill-rule="nonzero"/><path fill="#ffffff" d="M 262.390625 252.792969 C 263.113281 253.335938 262.664062 252.972656 262.390625 252.792969 Z M 262.390625 252.792969 " fill-opacity="1" fill-rule="nonzero"/><path fill="#ffffff" d="M 273.925781 276.765625 C 275.371094 274.695312 276.449219 272.261719 277.082031 269.738281 C 279.605469 259.824219 274.46875 250 266.265625 244.503906 C 257.34375 238.464844 245.628906 238.464844 236.257812 243.511719 C 234.996094 244.140625 233.824219 244.953125 232.742188 245.765625 C 228.414062 249.007812 224.8125 253.335938 223.730469 258.832031 C 222.738281 263.878906 223.550781 269.195312 226.34375 273.613281 C 229.496094 278.570312 234.453125 281.992188 239.953125 283.796875 C 244.1875 285.238281 248.875 285.6875 253.289062 285.777344 C 258.246094 285.867188 263.832031 285.417969 268.25 282.894531 C 270.59375 281.363281 272.394531 279.109375 273.925781 276.765625 Z M 242.746094 250.359375 C 242.476562 250.449219 242.292969 250.539062 242.292969 250.539062 C 242.382812 250.449219 242.566406 250.359375 242.746094 250.359375 Z M 267.980469 268.925781 C 267.890625 269.105469 267.800781 269.285156 267.710938 269.464844 C 267.800781 269.375 267.800781 269.285156 267.980469 269.015625 C 267.527344 269.828125 267.167969 270.816406 266.628906 271.628906 C 266.355469 272.078125 265.996094 272.53125 265.726562 272.980469 C 265.546875 273.25 265.367188 273.433594 265.09375 273.703125 C 264.824219 274.0625 264.464844 274.332031 264.195312 274.601562 C 264.105469 274.695312 263.925781 274.785156 263.832031 274.875 C 263.5625 275.054688 263.203125 275.234375 262.933594 275.324219 C 262.664062 275.414062 262.480469 275.503906 262.210938 275.59375 C 261.308594 275.863281 260.410156 276.136719 259.507812 276.226562 C 259.328125 276.226562 259.058594 276.316406 258.785156 276.316406 C 258.15625 276.40625 257.523438 276.40625 256.894531 276.496094 C 254.730469 276.585938 252.570312 276.585938 250.40625 276.40625 C 249.863281 276.40625 249.324219 276.316406 248.785156 276.226562 C 248.511719 276.226562 248.242188 276.136719 248.0625 276.136719 C 247.160156 275.957031 246.261719 275.863281 245.359375 275.683594 C 244.636719 275.503906 243.917969 275.324219 243.195312 275.144531 C 242.835938 275.054688 242.476562 274.875 242.023438 274.785156 C 241.753906 274.695312 241.484375 274.601562 241.214844 274.511719 C 241.03125 274.421875 240.941406 274.421875 240.761719 274.332031 C 239.769531 273.882812 238.871094 273.339844 237.96875 272.710938 C 237.789062 272.53125 237.519531 272.441406 237.335938 272.261719 C 236.886719 271.898438 236.527344 271.539062 236.167969 271.179688 C 235.714844 270.726562 235.355469 270.367188 234.996094 269.917969 C 234.996094 269.917969 234.996094 269.917969 234.996094 270.007812 C 234.996094 270.007812 234.996094 269.917969 234.996094 269.917969 C 234.90625 269.828125 234.8125 269.738281 234.8125 269.648438 C 234.722656 269.464844 234.632812 269.375 234.542969 269.195312 C 234.273438 268.746094 234.003906 268.386719 233.824219 267.933594 C 233.734375 267.753906 233.644531 267.484375 233.460938 267.304688 C 233.460938 267.304688 233.460938 267.304688 233.460938 267.214844 C 233.101562 266.222656 232.832031 265.320312 232.652344 264.328125 C 232.652344 264.058594 232.5625 263.789062 232.5625 263.519531 C 232.5625 263.066406 232.5625 262.527344 232.5625 262.078125 C 232.5625 261.894531 232.5625 261.714844 232.652344 261.445312 C 232.652344 261.445312 232.652344 261.355469 232.652344 261.355469 C 232.742188 260.816406 232.921875 260.273438 233.011719 259.734375 C 233.101562 259.460938 233.191406 259.101562 233.371094 258.832031 C 233.371094 258.742188 233.371094 258.742188 233.460938 258.652344 C 233.460938 258.5625 233.550781 258.472656 233.550781 258.382812 C 233.550781 258.472656 233.550781 258.472656 233.460938 258.5625 C 233.644531 258.292969 233.734375 257.929688 233.914062 257.660156 C 234.183594 257.121094 234.542969 256.667969 234.90625 256.128906 C 234.996094 256.039062 235.175781 255.859375 235.175781 255.675781 C 234.542969 256.757812 234.996094 255.859375 235.265625 255.585938 C 235.714844 255.136719 236.167969 254.6875 236.617188 254.234375 C 236.796875 254.054688 237.066406 253.875 237.246094 253.695312 C 237.335938 253.605469 237.429688 253.515625 237.519531 253.515625 C 238.507812 252.792969 239.589844 252.074219 240.761719 251.441406 C 241.214844 251.171875 241.753906 250.902344 242.292969 250.628906 C 242.292969 250.628906 242.382812 250.539062 242.476562 250.539062 C 242.476562 250.539062 242.566406 250.449219 242.746094 250.449219 C 242.925781 250.359375 243.105469 250.269531 243.285156 250.269531 C 244.277344 249.910156 245.359375 249.550781 246.441406 249.277344 C 246.890625 249.1875 247.429688 249.097656 247.882812 249.007812 C 247.882812 249.007812 247.882812 249.007812 247.792969 249.007812 C 247.882812 249.007812 247.972656 249.007812 247.972656 249.007812 C 247.972656 249.007812 248.0625 249.007812 248.0625 249.007812 C 248.332031 249.007812 248.601562 248.917969 248.785156 248.917969 C 249.773438 248.828125 250.765625 248.828125 251.757812 248.917969 C 252.296875 248.917969 252.75 249.007812 253.289062 249.007812 C 253.558594 249.007812 253.832031 249.097656 254.101562 249.1875 C 255.09375 249.367188 255.992188 249.640625 256.984375 249.910156 C 257.433594 250.089844 257.796875 250.179688 258.246094 250.359375 C 258.15625 250.359375 258.15625 250.269531 258.066406 250.269531 C 258.15625 250.359375 258.246094 250.359375 258.425781 250.449219 C 258.425781 250.449219 258.425781 250.449219 258.515625 250.449219 C 258.605469 250.449219 258.695312 250.539062 258.785156 250.539062 C 258.878906 250.539062 258.96875 250.628906 259.058594 250.628906 C 259.957031 251.082031 260.859375 251.53125 261.671875 252.074219 C 262.03125 252.253906 262.390625 252.523438 262.664062 252.792969 C 262.570312 252.703125 262.570312 252.703125 262.480469 252.613281 C 262.753906 252.792969 263.023438 252.972656 263.203125 253.246094 C 263.832031 253.785156 264.464844 254.414062 265.09375 255.046875 C 265.367188 255.40625 265.726562 255.769531 265.996094 256.039062 C 266.175781 256.21875 266.265625 256.488281 266.449219 256.667969 C 266.898438 257.390625 267.347656 258.109375 267.710938 258.921875 C 267.800781 259.101562 267.890625 259.28125 267.980469 259.460938 C 268.160156 259.824219 268.25 260.273438 268.429688 260.632812 C 268.609375 261.085938 268.699219 261.535156 268.789062 261.984375 C 268.878906 262.347656 268.972656 263.699219 268.972656 262.796875 C 269.0625 263.609375 269.0625 264.417969 269.0625 265.140625 C 269.0625 265.589844 268.972656 266.042969 268.972656 266.582031 C 269.0625 265.050781 268.972656 266.402344 268.878906 266.761719 C 268.789062 267.214844 268.609375 267.753906 268.519531 268.203125 C 268.070312 268.476562 267.980469 268.65625 267.980469 268.925781 Z M 267.980469 268.925781 " fill-opacity="1" fill-rule="nonzero"/><path fill="#ffffff" d="M 171.277344 302.179688 C 168.125 299.65625 164.699219 297.496094 160.914062 295.78125 C 153.433594 292.449219 144.421875 290.105469 136.761719 294.25 C 132.433594 296.59375 128.921875 300.917969 127.660156 305.695312 C 126.125 311.101562 127.75 316.511719 131.171875 320.835938 C 134.148438 324.621094 138.652344 327.503906 143.070312 329.488281 C 148.117188 331.742188 153.433594 333.09375 158.929688 333.183594 C 164.789062 333.273438 171.097656 332.011719 175.695312 328.046875 C 178.308594 325.792969 179.660156 322.640625 180.019531 319.304688 C 180.378906 315.96875 179.296875 312.636719 177.855469 309.660156 C 176.324219 306.6875 173.800781 304.164062 171.277344 302.179688 Z M 136.128906 310.832031 C 136.128906 311.101562 136.128906 311.464844 136.128906 310.832031 Z M 171.007812 318.855469 C 171.007812 318.671875 171.097656 318.582031 171.097656 318.402344 C 171.097656 318.582031 171.007812 318.761719 171.007812 318.945312 C 170.917969 319.214844 170.917969 319.394531 170.828125 319.664062 C 170.828125 319.753906 170.738281 319.933594 170.648438 320.117188 C 170.648438 320.207031 170.558594 320.207031 170.558594 320.207031 C 170.46875 320.386719 170.375 320.566406 170.195312 320.746094 C 169.835938 321.015625 169.566406 321.378906 169.207031 321.648438 C 169.023438 321.738281 168.84375 321.828125 168.753906 322.007812 C 168.304688 322.277344 167.851562 322.457031 167.492188 322.730469 C 167.492188 322.730469 167.402344 322.820312 167.3125 322.820312 C 167.222656 322.820312 167.132812 322.910156 167.042969 322.910156 C 166.589844 323.089844 166.050781 323.269531 165.601562 323.359375 C 164.789062 323.628906 163.707031 323.902344 162.898438 323.992188 C 163.167969 323.992188 163.4375 323.902344 162.714844 323.992188 C 162.445312 323.992188 162.175781 324.082031 161.996094 324.082031 C 161.363281 324.171875 160.734375 324.171875 160.101562 324.171875 C 159.113281 324.171875 158.121094 324.171875 157.039062 324.082031 C 156.589844 324.082031 156.136719 323.992188 155.6875 323.992188 C 155.6875 323.992188 155.597656 323.992188 155.597656 323.992188 C 155.234375 323.902344 154.875 323.902344 154.515625 323.808594 C 152.351562 323.449219 150.28125 322.820312 148.296875 322.007812 C 148.117188 321.917969 148.027344 321.917969 147.847656 321.828125 C 147.757812 321.828125 147.664062 321.738281 147.574219 321.738281 C 147.035156 321.46875 146.496094 321.285156 146.042969 321.015625 C 145.050781 320.566406 144.152344 320.023438 143.25 319.394531 C 142.4375 318.855469 141.628906 318.3125 140.90625 317.773438 C 140.726562 317.59375 140.546875 317.5 140.367188 317.320312 C 139.914062 316.960938 139.464844 316.601562 139.105469 316.148438 C 138.742188 315.789062 138.472656 315.519531 138.203125 315.160156 C 138.203125 315.160156 138.113281 315.070312 138.023438 314.976562 C 137.933594 314.886719 137.84375 314.796875 137.84375 314.707031 C 137.570312 314.257812 137.300781 313.898438 137.03125 313.445312 C 136.941406 313.265625 136.851562 313.085938 136.761719 312.816406 C 136.582031 312.363281 136.402344 311.914062 136.308594 311.375 C 136.308594 311.285156 136.21875 311.011719 136.21875 310.832031 C 136.21875 310.472656 136.21875 310.113281 136.21875 309.75 C 136.21875 309.570312 136.21875 309.390625 136.21875 309.121094 C 136.21875 309.121094 136.21875 309.03125 136.21875 309.03125 C 136.308594 308.578125 136.402344 308.21875 136.492188 307.769531 C 136.582031 307.589844 136.582031 307.40625 136.671875 307.136719 C 136.671875 307.046875 136.761719 306.867188 136.761719 306.867188 C 137.03125 306.144531 137.664062 305.425781 138.023438 304.882812 C 138.023438 304.882812 138.023438 304.792969 138.113281 304.792969 C 138.203125 304.703125 138.292969 304.613281 138.382812 304.523438 C 138.652344 304.164062 138.925781 303.894531 139.285156 303.621094 C 139.464844 303.441406 139.734375 303.171875 139.914062 302.992188 C 140.003906 302.992188 140.003906 302.902344 140.09375 302.902344 C 140.367188 302.722656 140.636719 302.542969 140.90625 302.359375 C 141.265625 302.179688 141.628906 302 141.988281 301.730469 C 141.988281 301.730469 142.078125 301.730469 142.167969 301.640625 C 142.800781 301.371094 143.519531 301.28125 144.242188 301.097656 C 144.242188 301.097656 144.332031 301.097656 144.332031 301.097656 C 144.691406 301.097656 145.050781 301.007812 145.503906 301.007812 C 146.222656 301.007812 147.035156 301.007812 147.757812 301.097656 C 147.847656 301.097656 148.117188 301.097656 148.296875 301.191406 C 148.476562 301.191406 149.019531 301.28125 149.109375 301.28125 C 149.917969 301.460938 150.820312 301.640625 151.632812 301.820312 C 153.253906 302.269531 154.785156 302.8125 156.316406 303.441406 C 156.496094 303.53125 156.769531 303.621094 156.949219 303.714844 C 157.398438 303.894531 157.757812 304.074219 158.210938 304.253906 C 159.113281 304.703125 160.011719 305.15625 160.824219 305.695312 C 161.636719 306.144531 162.445312 306.6875 163.167969 307.136719 C 163.707031 307.5 164.25 308.039062 164.878906 308.398438 C 164.789062 308.308594 164.878906 308.308594 165.058594 308.488281 C 165.148438 308.578125 165.238281 308.578125 165.238281 308.667969 C 165.238281 308.667969 165.238281 308.667969 165.328125 308.667969 C 165.421875 308.761719 165.601562 308.851562 165.691406 309.03125 C 166.050781 309.300781 166.320312 309.570312 166.683594 309.839844 C 167.222656 310.382812 167.761719 310.832031 168.304688 311.375 C 168.574219 311.644531 168.84375 311.914062 169.113281 312.273438 C 169.207031 312.363281 169.207031 312.363281 169.296875 312.453125 C 169.65625 312.996094 170.015625 313.535156 170.285156 314.078125 C 170.375 314.167969 170.375 314.257812 170.464844 314.347656 C 170.464844 314.347656 170.558594 314.4375 170.558594 314.527344 C 170.558594 314.617188 170.648438 314.617188 170.648438 314.707031 C 170.648438 314.617188 170.558594 314.617188 170.558594 314.527344 C 170.558594 314.617188 170.558594 314.617188 170.648438 314.617188 C 170.828125 315.160156 171.007812 315.699219 171.1875 316.238281 C 171.277344 316.511719 171.277344 316.691406 171.367188 316.960938 C 171.007812 317.59375 171.1875 318.492188 171.007812 318.855469 Z M 171.007812 318.855469 " fill-opacity="1" fill-rule="nonzero"/><path fill="#ffffff" d="M 170.285156 314.617188 C 170.195312 314.527344 170.195312 314.4375 170.195312 314.347656 C 170.195312 314.4375 170.195312 314.4375 170.285156 314.617188 Z M 170.285156 314.617188 " fill-opacity="1" fill-rule="nonzero"/><path fill="#ffffff" d="M 165.148438 308.761719 C 165.148438 308.761719 165.148438 308.667969 165.148438 308.761719 C 164.96875 308.667969 164.878906 308.578125 164.699219 308.488281 C 164.699219 308.488281 164.878906 308.578125 165.148438 308.761719 Z M 165.148438 308.761719 " fill-opacity="1" fill-rule="nonzero"/><path fill="#ffffff" d="M 270.953125 104.992188 C 264.375 105.535156 258.785156 109.320312 254.28125 114.003906 C 249.773438 118.78125 245.359375 123.738281 243.015625 130.046875 C 240.851562 135.816406 240.941406 143.113281 244.457031 148.25 C 249.863281 156.09375 261.21875 158.796875 270.234375 157.984375 C 275.460938 157.535156 280.234375 156.003906 284.203125 152.578125 C 288.527344 148.792969 291.230469 143.023438 292.132812 137.4375 C 293.574219 128.0625 291.5 117.339844 284.5625 110.492188 C 281.046875 106.886719 276 104.632812 270.953125 104.992188 Z M 281.949219 140.589844 C 281.949219 140.589844 282.039062 140.410156 282.128906 140.140625 C 282.128906 140.320312 282.039062 140.410156 281.949219 140.589844 Z M 283.570312 133.109375 C 283.570312 133.5625 283.480469 134.101562 283.480469 134.554688 C 283.480469 134.644531 283.480469 134.734375 283.480469 134.824219 C 283.480469 134.914062 283.480469 134.914062 283.480469 135.09375 C 283.480469 135.09375 283.480469 135.183594 283.480469 135.183594 C 283.480469 135.273438 283.480469 135.363281 283.480469 135.363281 C 283.480469 135.363281 283.480469 135.273438 283.480469 135.273438 C 283.300781 136.265625 283.121094 137.347656 282.757812 138.339844 C 282.578125 138.878906 282.398438 139.417969 282.21875 139.960938 C 282.21875 140.050781 282.128906 140.140625 282.128906 140.320312 C 282.039062 140.5 282.039062 140.589844 282.039062 140.589844 C 282.039062 140.679688 281.949219 140.769531 281.949219 140.769531 C 281.40625 141.941406 280.777344 142.933594 280.054688 144.015625 C 280.054688 144.015625 280.054688 144.105469 279.964844 144.105469 C 279.964844 144.105469 279.964844 144.195312 279.875 144.195312 C 279.695312 144.375 279.515625 144.648438 279.335938 144.828125 C 278.972656 145.277344 278.523438 145.636719 278.164062 146 C 277.984375 146.179688 277.804688 146.359375 277.621094 146.449219 C 277.53125 146.449219 277.53125 146.539062 277.441406 146.539062 C 276.992188 146.808594 276.542969 147.171875 276 147.441406 C 275.910156 147.53125 275.371094 147.710938 275.1875 147.800781 C 275.007812 147.890625 274.738281 147.980469 274.558594 148.070312 C 273.746094 148.339844 272.847656 148.613281 271.945312 148.703125 C 271.765625 148.703125 271.496094 148.792969 271.3125 148.792969 C 271.3125 148.792969 271.402344 148.792969 271.402344 148.792969 C 271.3125 148.792969 271.222656 148.792969 271.132812 148.792969 C 271.132812 148.792969 271.042969 148.792969 271.042969 148.792969 C 270.683594 148.792969 270.324219 148.882812 269.960938 148.882812 C 268.96875 148.972656 267.890625 148.972656 266.898438 148.972656 C 265.90625 148.972656 265.003906 148.882812 264.015625 148.792969 C 263.925781 148.792969 263.652344 148.703125 263.472656 148.703125 C 262.933594 148.613281 262.300781 148.523438 261.761719 148.433594 C 260.859375 148.25 259.957031 147.980469 259.058594 147.710938 C 258.605469 147.53125 258.15625 147.441406 257.707031 147.261719 C 257.523438 147.171875 257.253906 147.078125 257.074219 146.988281 C 256.261719 146.628906 255.542969 146.269531 254.730469 145.816406 C 254.371094 145.636719 254.011719 145.367188 253.738281 145.097656 C 253.558594 145.007812 253.46875 144.828125 253.289062 144.738281 C 252.929688 144.464844 252.570312 144.105469 252.296875 143.746094 C 252.207031 143.65625 252.207031 143.65625 252.117188 143.566406 C 252.027344 143.476562 252.027344 143.386719 251.9375 143.292969 C 251.847656 143.113281 251.667969 142.933594 251.578125 142.664062 C 251.578125 142.574219 251.398438 142.304688 251.308594 142.125 C 251.035156 141.582031 250.855469 140.769531 250.675781 140.230469 C 250.585938 140.050781 250.585938 139.78125 250.496094 139.601562 C 250.496094 139.601562 250.496094 139.507812 250.496094 139.507812 C 250.496094 139.417969 250.496094 139.328125 250.496094 139.238281 C 250.40625 138.609375 250.40625 137.976562 250.496094 137.347656 C 250.496094 136.984375 250.585938 136.625 250.585938 136.265625 C 250.585938 136.175781 250.585938 136.175781 250.585938 136.175781 C 250.585938 136.175781 250.585938 136.085938 250.585938 136.085938 C 250.765625 135.363281 250.855469 134.734375 251.035156 134.011719 C 251.125 133.5625 251.304688 132.300781 251.667969 132.03125 C 251.578125 132.210938 251.578125 132.300781 251.488281 132.480469 C 251.578125 132.210938 251.667969 132.03125 251.847656 131.757812 C 252.027344 131.398438 252.207031 131.039062 252.386719 130.675781 C 253.109375 129.324219 253.921875 127.972656 254.910156 126.710938 C 255 126.621094 255.089844 126.441406 255.183594 126.351562 C 255.089844 126.53125 255.8125 125.628906 255.902344 125.539062 C 256.445312 124.910156 256.894531 124.367188 257.433594 123.738281 C 258.515625 122.566406 259.507812 121.394531 260.589844 120.3125 C 261.582031 119.320312 262.570312 118.332031 263.5625 117.519531 C 263.742188 117.429688 263.832031 117.339844 264.015625 117.160156 C 264.105469 117.070312 264.285156 116.980469 264.375 116.890625 C 264.914062 116.527344 265.457031 116.167969 265.996094 115.808594 C 266.445312 115.539062 266.898438 115.265625 267.347656 115.085938 C 267.527344 114.996094 267.707031 114.90625 267.980469 114.816406 C 268.878906 114.546875 269.78125 114.277344 270.683594 114.003906 C 270.59375 114.003906 270.503906 114.003906 270.414062 114.003906 C 270.503906 114.003906 270.59375 114.003906 270.683594 114.003906 C 270.773438 114.003906 270.953125 114.003906 271.042969 114.003906 C 271.042969 114.003906 271.042969 114.003906 271.132812 114.003906 C 271.492188 114.003906 271.945312 114.003906 272.304688 114.003906 C 272.753906 114.003906 274.015625 114.367188 272.484375 114.003906 C 272.9375 114.09375 273.386719 114.183594 273.835938 114.277344 C 274.199219 114.367188 274.46875 114.457031 274.828125 114.546875 C 274.738281 114.546875 274.648438 114.457031 274.558594 114.367188 C 274.648438 114.457031 274.828125 114.457031 274.917969 114.546875 C 274.917969 114.546875 274.917969 114.546875 275.007812 114.546875 C 275.1875 114.636719 275.371094 114.726562 275.277344 114.726562 C 276 115.085938 276.632812 115.628906 277.351562 115.988281 C 276.179688 115.265625 277.171875 115.898438 277.53125 116.167969 C 277.800781 116.4375 278.164062 116.707031 278.433594 116.980469 C 278.703125 117.25 278.972656 117.609375 279.246094 117.878906 C 279.246094 117.96875 279.425781 118.152344 279.515625 118.242188 C 279.605469 118.332031 279.605469 118.332031 279.605469 118.421875 C 280.054688 119.140625 280.507812 119.863281 280.957031 120.582031 C 281.136719 120.945312 281.40625 121.394531 281.585938 121.753906 C 281.679688 121.9375 281.769531 122.117188 281.859375 122.296875 C 281.859375 122.296875 281.859375 122.386719 281.949219 122.386719 C 282.667969 124.1875 283.121094 126.082031 283.480469 127.972656 C 283.480469 128.152344 283.570312 128.335938 283.570312 128.515625 C 283.570312 128.964844 283.660156 129.414062 283.660156 129.867188 C 283.660156 130.949219 283.660156 132.03125 283.570312 133.109375 Z M 283.570312 133.109375 " fill-opacity="1" fill-rule="nonzero"/><path fill="#ffffff" d="M 271.042969 148.882812 C 271.132812 148.882812 271.222656 148.882812 271.222656 148.882812 C 270.324219 148.882812 270.683594 148.972656 271.042969 148.882812 Z M 271.042969 148.882812 " fill-opacity="1" fill-rule="nonzero"/><path fill="#ffffff" d="M 283.390625 135.273438 C 283.390625 135.273438 283.390625 135.183594 283.390625 135.183594 C 283.390625 135.09375 283.390625 134.914062 283.390625 134.824219 C 283.480469 134.644531 283.390625 134.734375 283.390625 135.273438 Z M 283.390625 135.273438 " fill-opacity="1" fill-rule="nonzero"/><path fill="#ffffff" d="M 271.132812 114.003906 C 271.042969 114.003906 270.863281 114.003906 270.773438 114.003906 C 270.773438 114.003906 270.683594 114.003906 270.683594 114.003906 C 271.222656 114.09375 271.222656 114.003906 271.132812 114.003906 Z M 271.132812 114.003906 " fill-opacity="1" fill-rule="nonzero"/><path fill="#ffffff" d="M 275.1875 114.726562 C 275.097656 114.726562 275.007812 114.636719 274.917969 114.636719 C 274.917969 114.636719 274.828125 114.636719 274.828125 114.636719 C 275.1875 114.726562 275.28125 114.726562 275.1875 114.726562 C 275.28125 114.726562 275.28125 114.726562 275.1875 114.726562 Z M 275.1875 114.726562 " fill-opacity="1" fill-rule="nonzero"/><path fill="#ffffff" d="M 248.601562 55.964844 C 248.601562 55.875 248.691406 55.875 248.691406 55.875 C 248.785156 55.785156 248.785156 55.605469 248.875 55.515625 C 248.875 55.515625 248.875 55.425781 248.875 55.425781 C 248.691406 55.695312 248.601562 55.875 248.601562 55.964844 Z M 248.601562 55.964844 " fill-opacity="1" fill-rule="nonzero"/><path fill="#ffffff" d="M 248.0625 56.507812 C 248.152344 56.417969 248.242188 56.328125 248.332031 56.328125 C 248.332031 56.328125 248.421875 56.238281 248.421875 56.238281 C 248.421875 56.238281 248.421875 56.238281 248.421875 56.144531 C 248.511719 56.054688 248.332031 56.144531 248.0625 56.507812 Z M 248.0625 56.507812 " fill-opacity="1" fill-rule="nonzero"/><path fill="#ffffff" d="M 249.054688 54.613281 C 249.054688 54.523438 249.054688 54.433594 249.144531 54.433594 C 249.144531 54.34375 249.144531 54.253906 249.234375 54.074219 C 249.234375 54.074219 249.234375 53.984375 249.234375 53.984375 C 249.144531 54.34375 249.054688 54.523438 249.054688 54.613281 Z M 249.054688 54.613281 " fill-opacity="1" fill-rule="nonzero"/><path fill="#ffffff" d="M 226.164062 41.277344 C 226.164062 41.1875 226.164062 41.1875 226.164062 41.097656 C 226.253906 41.1875 226.164062 41.277344 226.164062 41.277344 Z M 226.164062 41.277344 " fill-opacity="1" fill-rule="nonzero"/><path fill="#ffffff" d="M 228.324219 46.050781 C 228.324219 46.144531 228.324219 46.144531 228.324219 46.050781 C 228.597656 46.414062 229.136719 47.042969 228.324219 46.050781 Z M 228.324219 46.050781 " fill-opacity="1" fill-rule="nonzero"/><path fill="#ffffff" d="M 233.460938 51.191406 C 233.550781 51.191406 233.550781 51.28125 233.460938 51.191406 C 233.644531 51.28125 233.734375 51.371094 233.824219 51.460938 C 234.09375 51.640625 234.273438 51.640625 233.460938 51.191406 Z M 233.460938 51.191406 " fill-opacity="1" fill-rule="nonzero"/><path fill="#ffffff" d="M 245 56.777344 C 245 56.777344 245.089844 56.777344 245.179688 56.777344 C 245.359375 56.777344 245.539062 56.777344 245.628906 56.777344 C 245.71875 56.867188 245.71875 56.867188 245 56.777344 Z M 245 56.777344 " fill-opacity="1" fill-rule="nonzero"/><path fill="#ffffff" d="M 247.429688 56.6875 C 247.613281 56.597656 247.792969 56.597656 247.972656 56.507812 C 247.972656 56.507812 247.972656 56.507812 248.0625 56.507812 C 247.703125 56.597656 247.523438 56.6875 247.429688 56.6875 Z M 247.429688 56.6875 " fill-opacity="1" fill-rule="nonzero"/><path fill="#ffffff" d="M 240.492188 64.976562 C 243.554688 65.878906 246.980469 66.332031 250.046875 65.339844 C 253.648438 64.257812 256.171875 61.644531 257.433594 58.128906 C 260.589844 49.476562 255.09375 40.375 248.421875 35.148438 C 244.007812 31.632812 238.871094 29.109375 233.191406 28.75 C 227.335938 28.386719 222.195312 31.09375 218.773438 35.777344 C 218.683594 35.867188 218.59375 36.050781 218.503906 36.230469 C 214.808594 42.085938 218.863281 49.207031 222.828125 53.714844 C 227.515625 58.761719 233.914062 62.996094 240.492188 64.976562 Z M 229.316406 38.300781 C 229.40625 38.300781 229.40625 38.300781 229.496094 38.210938 C 229.496094 38.210938 229.496094 38.210938 229.496094 38.121094 C 229.496094 38.121094 229.496094 38.121094 229.496094 38.210938 C 229.585938 38.210938 229.675781 38.121094 229.675781 38.121094 C 230.128906 38.03125 230.578125 37.851562 230.9375 37.761719 C 230.9375 37.761719 231.027344 37.761719 231.027344 37.761719 C 231.480469 37.761719 232.019531 37.671875 232.472656 37.761719 C 232.921875 37.761719 233.28125 37.851562 233.734375 37.851562 C 233.460938 37.851562 233.191406 37.851562 233.101562 37.851562 C 233.28125 37.851562 233.734375 37.851562 233.914062 37.941406 C 234.90625 38.121094 235.804688 38.390625 236.707031 38.753906 C 236.886719 38.84375 237.066406 38.933594 237.246094 38.933594 C 237.609375 39.113281 238.058594 39.292969 238.417969 39.472656 C 239.320312 39.925781 240.222656 40.464844 241.03125 41.003906 C 241.394531 41.277344 241.753906 41.457031 242.113281 41.726562 C 242.292969 41.816406 242.382812 41.996094 242.566406 42.085938 C 243.285156 42.71875 244.007812 43.4375 244.726562 44.070312 C 245.089844 44.429688 245.449219 44.789062 245.71875 45.242188 C 245.988281 45.511719 246.710938 46.683594 245.988281 45.511719 C 246.53125 46.324219 247.160156 47.132812 247.613281 47.945312 C 247.792969 48.304688 247.972656 48.667969 248.152344 49.027344 C 248.152344 49.117188 248.242188 49.207031 248.242188 49.207031 C 248.242188 49.207031 248.242188 49.296875 248.242188 49.296875 C 248.332031 49.386719 248.332031 49.476562 248.421875 49.65625 C 248.421875 49.566406 248.332031 49.566406 248.332031 49.476562 C 248.601562 50.199219 248.785156 50.828125 248.964844 51.550781 C 248.964844 51.460938 248.964844 51.460938 248.964844 51.371094 C 248.964844 51.460938 248.964844 51.550781 248.964844 51.640625 C 248.964844 51.640625 248.964844 51.730469 248.964844 51.730469 C 248.964844 51.910156 248.964844 52 248.964844 52.089844 C 248.964844 52.453125 248.964844 52.722656 248.964844 53.082031 C 248.964844 53.351562 248.964844 53.621094 248.875 53.894531 C 248.875 53.804688 248.875 53.714844 248.964844 53.621094 C 248.964844 53.714844 248.875 53.894531 248.875 53.984375 C 248.875 54.074219 248.875 54.164062 248.875 54.253906 C 248.875 54.433594 248.785156 54.613281 248.785156 54.523438 C 248.691406 54.703125 248.691406 54.882812 248.601562 55.15625 C 248.601562 55.246094 248.601562 55.246094 248.601562 55.335938 C 248.601562 55.246094 248.691406 55.246094 248.691406 55.15625 C 248.601562 55.246094 248.601562 55.335938 248.511719 55.425781 C 248.511719 55.515625 248.511719 55.515625 248.421875 55.605469 C 248.332031 55.785156 248.242188 55.964844 248.242188 55.875 C 248.242188 55.964844 248.152344 55.964844 248.152344 56.054688 C 248.152344 56.054688 248.0625 56.144531 248.0625 56.144531 C 247.972656 56.238281 247.882812 56.328125 247.792969 56.328125 C 247.882812 56.328125 247.882812 56.328125 247.972656 56.238281 C 247.882812 56.238281 247.792969 56.238281 247.792969 56.328125 C 247.703125 56.417969 247.613281 56.417969 247.613281 56.507812 C 247.703125 56.417969 247.703125 56.417969 247.792969 56.328125 C 247.792969 56.328125 247.792969 56.328125 247.703125 56.328125 C 247.429688 56.507812 247.070312 56.507812 247.160156 56.507812 C 246.980469 56.507812 246.890625 56.597656 246.710938 56.597656 C 246.441406 56.597656 246.167969 56.597656 245.988281 56.597656 C 245.808594 56.597656 245.539062 56.597656 245.359375 56.597656 C 245.269531 56.597656 245.089844 56.597656 244.90625 56.597656 C 244.816406 56.597656 244.636719 56.597656 244.546875 56.597656 C 244.636719 56.597656 244.726562 56.597656 244.816406 56.597656 C 244.726562 56.597656 244.726562 56.597656 244.636719 56.597656 C 244.277344 56.507812 244.007812 56.507812 243.644531 56.417969 C 243.015625 56.238281 242.382812 56.054688 241.84375 55.875 C 241.574219 55.785156 241.304688 55.695312 241.03125 55.605469 C 240.941406 55.515625 240.761719 55.515625 240.671875 55.425781 C 239.410156 54.882812 238.238281 54.253906 237.066406 53.53125 C 235.894531 52.8125 234.8125 52 233.734375 51.28125 C 233.644531 51.191406 233.550781 51.191406 233.460938 51.097656 C 233.371094 51.097656 233.371094 51.007812 233.28125 51.007812 C 233.28125 51.007812 233.371094 51.007812 233.371094 51.097656 C 233.371094 51.097656 233.28125 51.007812 233.28125 51.007812 C 233.011719 50.738281 232.652344 50.46875 232.382812 50.289062 C 231.839844 49.835938 231.300781 49.386719 230.847656 48.847656 C 230.308594 48.304688 229.675781 47.675781 229.136719 47.042969 C 228.867188 46.773438 228.6875 46.503906 228.414062 46.234375 C 228.324219 46.050781 228.234375 45.960938 228.054688 45.78125 C 228.144531 45.871094 228.144531 45.871094 228.234375 45.960938 C 227.875 45.421875 227.515625 44.882812 227.152344 44.339844 C 226.972656 43.980469 226.792969 43.710938 226.613281 43.347656 C 226.613281 43.4375 226.613281 43.4375 226.613281 43.527344 C 226.613281 43.4375 226.613281 43.4375 226.523438 43.347656 C 226.433594 43.167969 226.34375 42.988281 226.34375 42.808594 C 226.253906 42.449219 226.074219 42.175781 225.980469 41.816406 C 225.980469 41.636719 225.980469 41.457031 225.980469 41.277344 C 225.980469 41.367188 225.980469 41.367188 225.890625 41.457031 C 225.890625 41.367188 225.890625 41.277344 225.980469 41.277344 C 225.980469 41.1875 225.980469 41.097656 225.980469 41.003906 C 225.980469 41.003906 225.980469 40.914062 226.074219 40.914062 C 226.074219 40.914062 226.074219 41.003906 226.074219 41.097656 C 226.074219 41.003906 226.074219 41.003906 226.074219 40.914062 C 226.164062 40.824219 226.164062 40.734375 226.253906 40.644531 C 226.433594 40.375 226.792969 40.015625 226.882812 39.925781 C 227.152344 39.652344 227.425781 39.382812 227.695312 39.203125 C 227.875 39.113281 228.054688 39.023438 228.144531 38.84375 C 228.234375 38.753906 228.6875 38.574219 228.957031 38.480469 C 228.957031 38.480469 228.867188 38.390625 229.316406 38.300781 Z M 229.316406 38.300781 " fill-opacity="1" fill-rule="nonzero"/><path fill="#ffffff" d="M 249.234375 52.089844 C 249.234375 51.910156 249.234375 51.820312 249.144531 51.640625 C 249.144531 51.640625 249.144531 51.550781 249.144531 51.550781 C 249.144531 52.089844 249.234375 52.269531 249.234375 52.089844 Z M 249.234375 52.089844 " fill-opacity="1" fill-rule="nonzero"/><path fill="#ffffff" d="M 226.523438 42.898438 C 226.613281 43.078125 226.613281 43.257812 226.703125 43.4375 C 226.523438 42.71875 226.523438 42.628906 226.523438 42.898438 Z M 226.523438 42.898438 " fill-opacity="1" fill-rule="nonzero"/><path fill="#ffffff" d="M 229.585938 38.210938 C 229.496094 38.300781 229.40625 38.300781 229.226562 38.390625 C 229.316406 38.390625 229.496094 38.300781 229.585938 38.210938 Z M 229.585938 38.210938 " fill-opacity="1" fill-rule="nonzero"/><path fill="#ffffff" d="M 248.601562 49.476562 C 248.601562 49.386719 248.511719 49.386719 248.511719 49.296875 C 248.511719 49.296875 248.511719 49.207031 248.511719 49.207031 C 248.332031 48.9375 248.152344 48.757812 248.601562 49.476562 Z M 248.601562 49.476562 " fill-opacity="1" fill-rule="nonzero"/><path fill="#ffffff" d="M 319.167969 214.222656 C 319.347656 214.3125 319.53125 214.3125 319.621094 214.402344 C 319.621094 214.402344 319.4375 214.3125 319.167969 214.222656 Z M 319.167969 214.222656 " fill-opacity="1" fill-rule="nonzero"/><path fill="#ffffff" d="M 318.269531 213.589844 C 318.269531 213.589844 318.359375 213.589844 318.269531 213.589844 C 318.449219 213.769531 318.539062 213.859375 318.628906 213.949219 C 318.628906 213.949219 318.71875 213.949219 318.71875 214.042969 C 318.449219 213.679688 318.269531 213.5 318.269531 213.589844 Z M 318.269531 213.589844 " fill-opacity="1" fill-rule="nonzero"/><path fill="#ffffff" d="M 339.085938 179.253906 C 335.300781 176.460938 330.164062 176.640625 326.289062 179.164062 C 318.539062 184.390625 311.777344 191.511719 308.804688 200.523438 C 306.730469 206.832031 306.914062 214.222656 311.328125 219.449219 C 316.015625 224.945312 323.765625 224.136719 329.53125 221.070312 C 334.488281 218.457031 338.09375 214.042969 340.707031 209.265625 C 343.503906 204.308594 345.484375 198.449219 345.214844 192.683594 C 345.214844 187.546875 343.410156 182.40625 339.085938 179.253906 Z M 334.578125 201.785156 C 334.398438 202.234375 334.488281 201.964844 334.578125 201.785156 Z M 336.292969 196.015625 C 336.292969 195.925781 336.292969 195.746094 336.292969 195.65625 C 336.292969 195.835938 336.292969 195.925781 336.292969 196.015625 Z M 336.382812 194.394531 C 336.382812 194.84375 336.292969 195.386719 336.292969 195.835938 C 336.292969 196.015625 336.292969 196.105469 336.292969 196.105469 C 336.292969 196.285156 336.203125 196.46875 336.203125 196.648438 C 336.023438 197.820312 335.660156 198.902344 335.300781 199.980469 C 335.121094 200.523438 334.941406 201.0625 334.671875 201.605469 C 334.671875 201.605469 334.671875 201.695312 334.671875 201.695312 C 334.488281 202.054688 334.308594 202.414062 334.128906 202.777344 C 333.589844 203.949219 332.957031 205.117188 332.238281 206.199219 C 331.964844 206.652344 331.605469 207.101562 331.335938 207.550781 C 331.15625 207.734375 331.066406 207.914062 330.886719 208.183594 C 330.792969 208.273438 330.613281 208.542969 330.523438 208.632812 C 329.804688 209.445312 329.082031 210.257812 328.363281 211.066406 C 328 211.425781 327.640625 211.699219 327.28125 211.96875 C 327.28125 211.96875 327.191406 212.058594 327.191406 212.058594 C 326.917969 212.238281 326.558594 212.507812 326.289062 212.6875 C 325.65625 213.050781 324.9375 213.410156 324.304688 213.769531 C 324.214844 213.769531 324.125 213.859375 324.035156 213.859375 C 323.765625 213.949219 323.496094 214.042969 323.316406 214.132812 C 322.773438 214.3125 322.234375 214.402344 321.691406 214.582031 C 321.421875 214.582031 321.152344 214.582031 320.882812 214.582031 C 320.699219 214.582031 320.519531 214.582031 320.25 214.582031 C 320.070312 214.492188 319.890625 214.492188 319.710938 214.402344 C 319.980469 214.492188 319.53125 214.402344 319.257812 214.222656 C 319.167969 214.222656 319.078125 214.132812 318.988281 214.132812 C 319.078125 214.132812 319.167969 214.222656 319.257812 214.222656 C 319.078125 214.132812 318.988281 214.042969 318.808594 213.949219 C 318.808594 213.949219 318.898438 214.042969 318.898438 214.042969 C 318.808594 213.949219 318.808594 213.949219 318.71875 213.859375 C 318.71875 213.859375 318.71875 213.859375 318.628906 213.859375 C 318.359375 213.679688 318.269531 213.589844 318.269531 213.589844 C 318.175781 213.5 317.996094 213.320312 317.90625 213.230469 C 317.636719 212.871094 317.457031 212.507812 317.277344 212.058594 C 317.1875 211.878906 317.1875 211.699219 317.097656 211.519531 C 316.914062 210.976562 316.824219 210.4375 316.734375 209.894531 C 316.734375 209.625 316.734375 209.355469 316.644531 209.175781 C 316.644531 208.542969 316.644531 207.914062 316.644531 207.28125 C 316.644531 207.011719 316.734375 206.652344 316.734375 206.378906 C 316.734375 206.378906 316.734375 206.289062 316.734375 206.289062 C 316.824219 205.570312 317.007812 204.9375 317.1875 204.21875 C 317.367188 203.40625 317.636719 202.59375 317.996094 201.785156 C 318.085938 201.695312 318.085938 201.515625 318.175781 201.425781 C 318.359375 200.972656 318.539062 200.523438 318.808594 200.164062 C 319.710938 198.449219 320.699219 196.828125 321.871094 195.296875 C 322.324219 194.664062 321.691406 195.476562 321.691406 195.476562 C 321.691406 195.296875 322.144531 194.933594 322.234375 194.753906 C 322.59375 194.304688 322.953125 193.945312 323.316406 193.492188 C 324.035156 192.683594 324.847656 191.871094 325.65625 191.148438 C 326.558594 190.339844 327.460938 189.527344 328.453125 188.714844 C 328.542969 188.625 328.542969 188.625 328.632812 188.535156 C 328.632812 188.535156 329.082031 188.175781 329.171875 188.085938 C 329.804688 187.636719 330.34375 187.273438 330.976562 186.824219 C 331.335938 186.644531 331.605469 186.464844 331.964844 186.285156 C 332.148438 186.191406 332.417969 186.191406 332.597656 186.101562 C 332.6875 186.101562 332.777344 186.101562 332.867188 186.101562 C 332.957031 186.101562 332.957031 186.101562 333.046875 186.101562 C 333.226562 186.101562 333.410156 186.191406 333.589844 186.191406 C 333.769531 186.285156 333.949219 186.464844 334.21875 186.554688 C 334.308594 186.644531 334.308594 186.644531 334.398438 186.734375 C 334.578125 186.914062 334.761719 187.09375 334.941406 187.273438 C 334.941406 187.363281 335.03125 187.363281 335.03125 187.453125 C 335.210938 187.816406 335.390625 188.085938 335.570312 188.445312 C 335.660156 188.535156 335.660156 188.625 335.75 188.714844 C 335.839844 189.078125 336.023438 189.4375 336.113281 189.796875 C 336.203125 190.160156 336.292969 190.609375 336.382812 190.96875 C 336.382812 191.148438 336.472656 191.238281 336.472656 191.421875 C 336.382812 192.5 336.472656 193.402344 336.382812 194.394531 Z M 336.382812 194.394531 " fill-opacity="1" fill-rule="nonzero"/><path fill="#ffffff" d="M 50.152344 153.929688 C 50.242188 154.019531 50.242188 154.019531 50.152344 153.929688 C 50.242188 154.019531 50.152344 153.929688 50.152344 153.929688 Z M 50.152344 153.929688 " fill-opacity="1" fill-rule="nonzero"/><path fill="#ffffff" d="M 62.949219 141.851562 C 62.859375 141.851562 62.769531 141.851562 62.679688 141.851562 C 62.589844 141.851562 62.5 141.941406 62.410156 141.941406 C 62.410156 141.941406 62.5 141.941406 62.949219 141.851562 Z M 62.949219 141.851562 " fill-opacity="1" fill-rule="nonzero"/><path fill="#ffffff" d="M 55.109375 164.023438 C 62.320312 163.664062 69.980469 159.96875 74.214844 154.019531 C 77.101562 149.964844 77.191406 144.828125 75.027344 140.5 C 72.863281 136.175781 68.359375 133.019531 63.492188 132.839844 C 63.3125 132.839844 63.128906 132.839844 62.949219 132.839844 C 62.769531 132.839844 62.589844 132.839844 62.410156 132.839844 C 57.09375 133.199219 52.226562 136.625 48.53125 140.140625 C 44.835938 143.566406 40.78125 148.792969 41.050781 154.109375 C 41.5 161.230469 48.890625 164.292969 55.109375 164.023438 Z M 50.242188 154.109375 C 50.332031 154.199219 50.332031 154.289062 50.332031 154.289062 C 50.332031 154.199219 50.332031 154.109375 50.242188 154.109375 Z M 55.46875 155.011719 C 55.46875 155.011719 55.5625 155.011719 55.5625 155.011719 C 55.5625 155.011719 55.46875 155.011719 55.46875 155.011719 Z M 67.636719 147.261719 C 67.636719 147.53125 67.636719 147.441406 67.636719 147.261719 Z M 67.636719 146.988281 C 67.636719 146.898438 67.636719 146.808594 67.726562 146.808594 C 67.636719 146.808594 67.636719 146.898438 67.636719 146.988281 Z M 67.636719 146.089844 C 67.636719 146.179688 67.636719 146.179688 67.636719 146.269531 C 67.816406 146.898438 67.636719 146.449219 67.636719 146.089844 Z M 67.367188 145.097656 C 67.367188 145.097656 67.277344 145.007812 67.277344 144.917969 C 67.367188 145.097656 67.367188 145.097656 67.367188 145.097656 Z M 67.1875 144.648438 C 67.1875 144.554688 67.1875 144.554688 67.1875 144.648438 Z M 65.835938 142.933594 C 65.835938 142.933594 65.746094 142.84375 65.652344 142.753906 C 65.746094 142.84375 65.835938 142.933594 65.835938 142.933594 Z M 50.515625 152.398438 C 50.695312 152.035156 50.785156 151.765625 50.964844 151.40625 C 51.234375 150.957031 51.503906 150.59375 51.777344 150.144531 C 51.867188 149.964844 52.046875 149.785156 52.226562 149.511719 C 52.945312 148.792969 53.578125 147.890625 54.300781 147.171875 C 55.199219 146.269531 56.101562 145.636719 57.003906 144.738281 C 57.003906 144.738281 57.003906 144.738281 57.09375 144.738281 C 57.363281 144.554688 57.632812 144.375 57.902344 144.195312 C 58.355469 143.835938 58.894531 143.566406 59.4375 143.203125 C 59.886719 142.933594 60.335938 142.664062 60.878906 142.484375 C 60.96875 142.484375 61.058594 142.394531 61.148438 142.394531 C 61.238281 142.394531 61.328125 142.304688 61.417969 142.304688 C 61.777344 142.214844 62.140625 142.03125 62.589844 141.941406 C 62.589844 141.941406 62.679688 141.941406 62.859375 141.851562 C 62.949219 141.851562 63.039062 141.851562 63.132812 141.761719 C 63.132812 141.761719 63.132812 141.761719 63.222656 141.761719 C 63.3125 141.761719 63.402344 141.761719 63.582031 141.761719 C 63.582031 141.761719 63.671875 141.761719 63.671875 141.761719 C 63.761719 141.761719 63.761719 141.761719 63.851562 141.761719 C 64.210938 141.761719 64.121094 141.851562 64.03125 141.851562 C 64.300781 141.941406 64.484375 141.941406 64.574219 141.941406 C 64.574219 141.941406 64.574219 141.941406 64.664062 141.941406 C 64.484375 141.851562 64.390625 141.761719 64.753906 141.941406 C 64.753906 141.941406 64.84375 142.03125 64.84375 142.03125 C 64.933594 142.03125 65.023438 142.125 65.023438 142.125 C 65.292969 142.304688 65.5625 142.394531 65.835938 142.574219 C 65.835938 142.574219 65.925781 142.664062 66.015625 142.664062 C 66.015625 142.664062 66.015625 142.664062 66.105469 142.753906 C 66.375 143.023438 66.554688 143.203125 66.824219 143.476562 C 66.914062 143.566406 66.914062 143.566406 66.914062 143.566406 C 67.097656 143.925781 67.367188 144.195312 67.546875 144.554688 C 67.546875 144.554688 67.636719 144.738281 67.726562 144.828125 C 67.816406 145.097656 67.90625 145.457031 67.996094 145.726562 C 67.996094 145.816406 67.996094 145.816406 67.996094 145.910156 C 67.996094 146.089844 67.996094 146.71875 67.996094 146.988281 C 67.996094 147.171875 67.90625 147.351562 67.90625 147.261719 C 67.816406 147.441406 67.726562 147.710938 67.726562 147.890625 C 67.726562 147.890625 67.726562 147.980469 67.726562 147.980469 C 67.546875 148.25 67.367188 148.613281 67.1875 148.882812 C 67.1875 148.972656 67.097656 148.972656 67.097656 149.0625 C 67.097656 149.0625 67.097656 149.0625 67.1875 148.972656 C 67.1875 148.972656 67.097656 149.0625 67.097656 149.0625 C 67.007812 149.152344 67.007812 149.242188 66.914062 149.242188 C 66.824219 149.421875 66.734375 149.421875 66.734375 149.421875 C 66.644531 149.511719 66.644531 149.601562 66.554688 149.695312 C 66.105469 150.144531 65.652344 150.59375 65.203125 150.957031 C 65.113281 151.046875 64.933594 151.136719 64.933594 151.226562 C 64.664062 151.40625 64.390625 151.585938 64.121094 151.765625 C 63.492188 152.125 62.949219 152.488281 62.320312 152.847656 C 61.960938 153.027344 61.6875 153.207031 61.328125 153.386719 C 61.238281 153.386719 61.148438 153.480469 61.058594 153.480469 C 60.425781 153.660156 59.886719 153.929688 59.253906 154.109375 C 58.625 154.289062 57.992188 154.46875 57.363281 154.648438 C 57.09375 154.742188 56.824219 154.742188 56.460938 154.832031 C 56.460938 154.832031 56.460938 154.832031 56.371094 154.832031 C 55.832031 154.832031 55.289062 154.921875 54.75 154.921875 C 54.480469 154.921875 54.207031 154.921875 53.9375 154.832031 C 53.847656 154.832031 53.578125 154.742188 53.488281 154.742188 C 53.757812 154.742188 54.300781 154.921875 53.757812 154.832031 C 53.667969 154.832031 53.578125 154.832031 53.488281 154.742188 C 53.488281 154.742188 53.398438 154.742188 53.398438 154.742188 C 53.398438 154.742188 53.398438 154.742188 53.488281 154.742188 C 52.945312 154.648438 52.496094 154.558594 51.957031 154.378906 C 51.777344 154.289062 51.503906 154.199219 51.324219 154.199219 C 51.144531 154.109375 50.964844 154.019531 50.785156 153.839844 C 50.785156 153.660156 50.785156 153.480469 50.785156 153.296875 C 50.785156 153.117188 50.875 153.027344 50.875 152.847656 C 50.332031 152.757812 50.421875 152.578125 50.515625 152.398438 Z M 49.882812 153.660156 C 49.882812 153.660156 49.972656 153.75 49.882812 153.660156 Z M 49.882812 153.660156 " fill-opacity="1" fill-rule="nonzero"/><path fill="#ffffff" d="M 66.285156 149.601562 C 66.375 149.421875 66.464844 149.332031 66.644531 149.242188 C 66.375 149.332031 66.285156 149.511719 66.285156 149.601562 Z M 66.285156 149.601562 " fill-opacity="1" fill-rule="nonzero"/><path fill="#ffffff" d="M 63.761719 141.851562 C 63.671875 141.851562 63.492188 141.761719 63.402344 141.761719 C 63.402344 141.761719 63.3125 141.761719 63.3125 141.761719 C 63.492188 141.941406 63.582031 141.941406 63.761719 141.851562 Z M 63.761719 141.851562 " fill-opacity="1" fill-rule="nonzero"/><path fill="#ffffff" d="M 64.664062 142.125 C 64.664062 142.125 64.574219 142.125 64.574219 142.03125 C 64.484375 142.03125 64.390625 141.941406 64.390625 141.941406 C 64.390625 142.03125 64.574219 142.125 64.664062 142.125 Z M 64.664062 142.125 " fill-opacity="1" fill-rule="nonzero"/><path fill="#ffffff" d="M 282.398438 314.347656 C 280.6875 313.445312 278.882812 313.988281 277.804688 315.519531 C 277.710938 315.699219 277.53125 315.878906 277.351562 316.058594 C 277.351562 316.058594 277.171875 316.238281 277.171875 316.332031 C 277.082031 316.421875 276.992188 316.601562 276.902344 316.601562 C 276.8125 316.78125 276.632812 316.871094 276.542969 317.050781 C 276 317.683594 275.371094 318.3125 274.738281 318.855469 C 274.378906 319.125 274.109375 319.394531 273.746094 319.664062 C 273.746094 319.664062 273.746094 319.664062 273.65625 319.753906 C 273.476562 319.84375 273.386719 319.933594 273.207031 320.117188 C 272.484375 320.65625 271.675781 321.105469 270.953125 321.558594 C 270.59375 321.738281 270.234375 321.917969 269.78125 322.097656 C 269.601562 322.1875 269.421875 322.277344 269.242188 322.367188 C 269.242188 322.367188 269.152344 322.367188 269.152344 322.367188 C 268.339844 322.640625 267.527344 323 266.71875 323.179688 C 265.90625 323.449219 265.09375 323.628906 264.195312 323.71875 C 264.195312 323.71875 264.015625 323.71875 263.832031 323.71875 C 263.742188 323.71875 263.5625 323.71875 263.472656 323.71875 C 263.023438 323.71875 262.570312 323.808594 262.03125 323.808594 C 260.230469 323.902344 258.605469 325.34375 258.605469 327.234375 C 258.695312 329.039062 260.046875 330.660156 262.03125 330.660156 C 270.59375 330.390625 278.523438 325.972656 283.390625 318.945312 C 284.5625 317.5 283.839844 315.160156 282.398438 314.347656 Z M 282.398438 314.347656 " fill-opacity="1" fill-rule="nonzero"/><path fill="#ffffff" d="M 105.039062 47.222656 C 98.1875 50.738281 91.96875 55.515625 86.832031 61.285156 C 85.660156 62.636719 85.480469 64.796875 86.832031 66.058594 C 88.09375 67.230469 90.347656 67.5 91.609375 66.058594 C 92.78125 64.707031 94.042969 63.445312 95.394531 62.183594 C 96.027344 61.554688 96.746094 60.921875 97.378906 60.382812 C 97.738281 60.023438 98.1875 59.75 98.550781 59.390625 C 98.730469 59.300781 98.820312 59.121094 99 59.03125 C 99 59.03125 99.269531 58.761719 99.449219 58.667969 C 99.539062 58.578125 99.628906 58.488281 99.628906 58.488281 C 99.8125 58.308594 99.992188 58.21875 100.261719 58.039062 C 100.621094 57.769531 100.980469 57.5 101.34375 57.226562 C 102.0625 56.6875 102.875 56.238281 103.597656 55.695312 C 105.128906 54.703125 106.75 53.804688 108.460938 52.902344 C 109.996094 52.089844 110.625 49.746094 109.632812 48.304688 C 108.550781 46.863281 106.660156 46.324219 105.039062 47.222656 Z M 105.039062 47.222656 " fill-opacity="1" fill-rule="nonzero"/><path fill="#ffffff" d="M 336.292969 106.433594 C 336.203125 106.523438 336.113281 106.613281 336.023438 106.613281 C 336.113281 106.613281 336.203125 106.523438 336.292969 106.433594 Z M 336.292969 106.433594 " fill-opacity="1" fill-rule="nonzero"/></svg>